<svg version="1.1" xmlns="http://www.w3.org/2000/svg" xmlns:xlink="http://www.w3.org/1999/xlink" width="93.28478" height="105.72492" viewBox="0,0,93.28478,105.72492"><g transform="translate(-189.86538,-131.01923)"><g data-paper-data="{&quot;isPaintingLayer&quot;:true}" fill="#00ff40" fill-rule="nonzero" stroke="none" stroke-width="0.5" stroke-linecap="butt" stroke-linejoin="miter" stroke-miterlimit="10" stroke-dasharray="" stroke-dashoffset="0" style="mix-blend-mode: normal"><path d="M270.44558,176.11915c-0.06066,2.57669 -0.37059,5.27276 -0.37059,7.48084c0,1 0.17048,2.01464 0,3c-0.08145,0.4708 -1.16037,1.02013 -0.73223,1.23223c0.80842,0.4005 1.98686,-0.82059 2.69401,-0.26034c1.06334,0.84246 0.93242,2.57186 1.66485,3.71378c0.50902,0.79359 1.52642,1.18476 2,2c0.43969,0.7569 0.01409,1.9358 0.64114,2.54656c0.7551,0.73548 2.2704,0.23922 3,1c0.9127,0.95171 0.8746,2.49693 1.47802,3.66939c0.61002,1.18526 1.78149,2.09196 2.14694,3.37392c0.39287,1.37811 0.02693,2.8659 0.04039,4.29884c-1.3992,2.88766 -2.51491,8.09452 -4.3065,10.73995c-3.04187,4.49159 -8.21138,4.49159 -11.25325,0c-1.18215,-1.74555 -0.92119,-4.18876 -2,-6c-1.54852,-2.59986 -3.89468,-2.81157 -6.1877,-4.1877c-1.73285,-1.03995 -4.08299,-3.98 -6.72896,-2.81693c-2.28834,1.00587 -3.05582,4.31121 -3.53135,6.29664c-1.01746,4.24807 -0.92536,8.03415 -0.92536,12.39366c-0.06343,1.3189 0.27428,2.72071 -0.1903,3.95671c-0.37683,1.00256 -1.62564,1.44307 -2.18307,2.35762c-0.64383,1.05631 -0.461,2.60247 -1.35886,3.45344c-1.03752,0.98334 -2.6287,1.12962 -3.9772,1.60394c-3.54629,1.24737 -8.09529,1.11859 -11.30805,-1.38494c-1.09704,-0.85486 -1.53882,-2.32241 -2.41587,-3.40179c-0.66361,-0.81669 -1.65626,-1.36567 -2.19327,-2.27064c-2.37829,-4.00796 -2.49591,-8.8347 -2.37337,-13.31433c0.03611,-1.31993 -0.27117,-2.71955 0.1903,-3.95671c0.3634,-0.97423 1.62045,-1.37102 2.1342,-2.27504c0.49648,-0.87364 1.27684,-5.05087 -0.78121,-5.45855c-1.12722,-0.22329 -2.30431,0.30691 -3.44375,0.15802c-1.87822,-0.24542 -3.70551,-0.99124 -5.59954,-0.96772c-4.66503,-0.04429 -9.39907,-1.49283 -13.79057,-3.12829c-1.3396,-0.49889 -2.93967,-0.6206 -3.9772,-1.60394c-0.89786,-0.85097 -0.71123,-2.39946 -1.35886,-3.45344c-0.46327,-0.75395 -1.41508,-1.11331 -1.90148,-1.85255c-0.92523,-1.40621 -1.62098,-2.95682 -2.28159,-4.50507c-0.9272,-2.17305 -1.99688,-5.53389 -1,-7.91342c2.35225,-5.61478 11.39643,-5.67769 16.3097,-5.54329c1.31993,0.03611 2.71741,-0.26539 3.95671,0.1903c0.88488,0.32537 1.15863,1.57457 2,2c0.49095,0.24824 1.098,-0.08183 1.64284,-0.15802c2.48236,-0.34715 1.91925,-1.59545 2.00773,-3.80782c-0.87515,-1.21243 -3.66402,-4.9744 -4,-6c-0.14566,-0.44462 -0.10727,-7.43427 -0.10727,-7.72446c0,-6.74579 -1.55503,-14.7256 7.09954,-16.46772c3.40276,-0.68496 11.53102,-0.80736 14.16822,1.69995c1.03599,0.98496 1.10412,2.63795 1.60394,3.9772c1.09726,2.94009 2.08094,5.9993 3,9c0.57413,1.87451 0.1505,2.78237 2.35275,3.39784c1.08101,0.30211 4.4262,-0.64328 5.04379,-0.78277c2.04517,-2.12694 3.83859,-4.49233 5.55152,-6.89492c0.40931,-0.57411 1.10553,-0.99408 1.29352,-1.67363c0.26489,-0.95751 -0.34139,-2.04525 -0.00602,-2.98041c0.51507,-1.43621 1.5207,-2.65764 2.45937,-3.86051c0.43588,-0.55857 1.37698,-0.70755 1.62366,-1.37174c0.34816,-0.93743 -0.38897,-2.07875 0,-3c0.84974,-2.01256 3.02768,-3.21847 4.06391,-5.14167c0.68236,-1.26644 0.60811,-3.10103 1.78401,-3.92973c0.74091,-0.52214 6.11912,-0.50862 7.46178,-0.47189c1.31993,0.03611 2.7323,-0.30401 3.95671,0.1903c1.17144,0.47293 1.89244,1.6747 2.81106,2.54193c0.40654,0.3838 4.22928,4.23045 4.35886,4.45344c2.66591,4.58781 1.78457,12.34303 0.24508,17.1049c-0.41503,1.17459 -0.61406,2.44965 -1.24508,3.52376c-0.47757,0.81291 -1.50584,1.19707 -2,2c-1.10498,1.7954 -0.92509,4.18644 -2,6c-0.41626,0.70231 -1.50982,0.88594 -1.81693,1.64238c-0.30706,0.75633 0.10535,1.62916 0.15802,2.44375l-1.09601,3.39011c0,0 -0.64121,1.92364 -2.50111,1.72859z"/></g></g></svg>