<svg version="1.1" xmlns="http://www.w3.org/2000/svg" xmlns:xlink="http://www.w3.org/1999/xlink" width="556.56822" height="453.59755" viewBox="0,0,556.56822,453.59755"><g transform="translate(36.42499,55.40384)"><g data-paper-data="{&quot;isPaintingLayer&quot;:true}" fill-rule="nonzero" stroke="none" stroke-width="0.5" stroke-linecap="butt" stroke-linejoin="miter" stroke-miterlimit="10" stroke-dasharray="" stroke-dashoffset="0" style="mix-blend-mode: normal"><path d="M-12.42502,53.6v-4l0.39063,-3.90625l0.02641,-0.08302l0.00119,-0.08711l0.86469,-3.82932l0.69638,-2.08915l0.0207,-0.0828v-4.92236l0.24512,-2.45122l0.24036,-2.45169l1,-5l0.51452,-1.68076v-6.41634l0.02525,-0.25246l-1.3557,-3.25369l0.54582,-2.69701l-0.21537,-0.79685l1.49939,-5.54774l1.13993,-5.6326l0.54899,-0.61641l0.71794,-2.65637l7.13919,-6.16566l1.55137,-1.74189l7.08381,-1.79906l1.41313,-0.44963l0.58936,-0.05894l1.91935,-0.48745l1.15049,0.18047l0.24705,-0.0247h5.06861l0.23576,-0.13544l1.85096,0.13544h2.84467l3.90625,0.39063l0.4218,0.13421l2.30108,0.16837l2.83227,1.46497l3.0386,0.96683l1.74617,1.50805l0.39315,0.20336l2.09614,1.71503l0.7525,0.33733l1.5013,1.09417l1.65006,0.85348l1.42529,1.16615l0.84108,0.28036l1.61784,0.72524l1.65681,0.63116l0.72136,0.36068h9.44553l2.5764,-0.58177l0.08711,-0.00119l0.08302,-0.02641l3.90625,-0.39062h10.92236l1.01425,-0.25356l1.92359,-0.2815l0.23355,-0.07431l0.86604,-0.0866l0.86118,-0.12603l0.2446,0.01545l1.93443,-0.19344h0.92236l1.01425,-0.25356l1.49216,-0.21836l1.47037,-0.33502l8,-1l1.55405,-0.03837l1.54681,-0.15468h16l1.54681,0.15468l1.55405,0.03837l4.60545,0.57568c2.27738,-0.82117 4.73326,-1.26873 7.29368,-1.26873c3.90557,0 7.56792,1.04137 10.72451,2.8616c0.18234,-0.37039 0.35332,-0.74604 0.50772,-1.12938c3.43811,-1.38486 6.64812,-4.51271 10.04331,-5.62496c1.18028,-0.38666 2.48262,-0.08746 3.72446,-0.10727c3.33051,-0.05313 6.6693,0 10,0c2.01667,0 4.03335,0 6.05002,0l0.71127,-0.19224l1.05836,-0.66844l16,-8l1.92721,-0.73417l1.90099,-0.79962l12.72219,-3.91452l8.72426,-2.90809l3.82932,-0.86469l0.08711,-0.00119l0.08302,-0.02641l3.90625,-0.39062h7l3.90625,0.39063l0.08302,0.02641l0.08711,0.00119l3.82932,0.86469l6,2l0.83461,0.37413l0.87508,0.26603l10.44934,4.35389l13.37684,3.56716l0.89134,0.33578l0.92586,0.22364l2.92389,1.02336c0.32733,-0.41513 0.67405,-0.81559 1.0496,-1.19466c0.90314,-0.91159 2.1941,-1.34757 3.18279,-2.16559c1.19791,-0.99112 2.00177,-2.47348 3.35323,-3.24214c2.6063,-1.48238 5.95494,-1.29532 8.548,-2.80074c0.91846,-0.53322 1.42858,-1.62848 2.35762,-2.14305c1.71358,-0.94911 3.5494,-1.73296 5.45553,-2.18447c1.43771,-0.34055 2.96983,0.07041 4.42971,-0.15706c1.05488,-0.16437 1.98309,-0.85923 3.04043,-1.0069c0.30118,-0.04206 7.87166,-0.03228 8.40046,-0.03228c6.11812,0 12.80479,-0.81461 18.7075,1.11359c1.46603,0.4789 2.7099,1.49558 4.15318,2.03923c1.41164,0.53173 3.06573,0.41568 4.37107,1.17168c1.41652,0.82038 2.35735,2.27182 3.53602,3.40773c2.55741,2.55741 5.01523,5.55252 7.81721,7.83441c1.07841,0.87825 2.56917,1.30186 3.40179,2.41587c1.95134,2.61079 2.00014,8.28122 1.54221,11.51748h1.471l1.93443,0.19344l0.2446,-0.01545l0.86118,0.12603l0.86604,0.0866l0.23355,0.07431l1.92359,0.2815l1.01425,0.25356h0.7155l29.759,-2.8799l19.96026,-1.99603h1.24689l1.2407,-0.12407h2.52451l2.57258,-0.51452l2.45169,-0.24036l2.45122,-0.24512h16l3.90625,0.39063l0.08302,0.02641l0.08711,0.00119l2.5764,0.58177h2.34723l3.90625,0.39063l0.4218,0.13421l2.30108,0.16837l2.52647,1.3068h4.8444l0.24705,0.0247l1.15049,-0.18047l1.91935,0.48745l0.58936,0.05894l1.41313,0.44963l7.08381,1.79906l1.55137,1.74189l7.13919,6.16566l0.71794,2.65637l0.54899,0.61641l1.13993,5.6326l1.49939,5.54774l-0.21537,0.79685l0.54582,2.69701l-2.78074,6.67377l0.972,1.215l0.68843,1.06215l0.05421,0.05572l0.68987,1.0923l0.70267,1.08412l0.02787,0.07257l0.6759,1.07017l0.10071,0.20143l0.41361,0.47891l0.30476,0.95783l0.18092,0.36183l1.39754,3.66855l0.28789,1.83527l0.56327,1.77027l0.37768,3.77685l0.2665,1.06601l0.2815,1.92359l0.07431,0.23355l0.0866,0.86604l0.12603,0.86118l-0.01545,0.2446l0.19344,1.93443v16l-0.27265,2.72649l0.00828,0.27827l-0.08093,0.44825l-0.04532,0.45324l-0.08441,0.26529l-0.48687,2.69649l-1.0381,3.63335v3.49863l-0.03637,0.36368l0.17122,1.36976l-0.47257,1.64371l-0.05291,0.5291l-1.0288,3.23337l-0.93754,3.26101l-0.23391,0.4403l-0.69204,3.06477l-0.37971,1.13913l-0.62974,3.77845l-0.95889,6.71226l-0.44695,1.81409l-0.35613,1.83408l-1.94566,6.48552v3.33078l-0.27265,2.72649l0.00828,0.27827l-0.08093,0.44825l-0.04532,0.45324l-0.08441,0.26529l-0.00893,0.04947l5.98397,1.90399l0.42702,0.36879l1.52611,0.41246l3.07736,3.56326l3.56326,3.07736l0.41246,1.52611l0.36879,0.42702l2.73438,8.59375l0.39063,3.90625v15.98913l0.15576,0.61332l-0.15576,0.993v0.40454l-0.39062,3.90625l-0.56327,1.77027l-0.28789,1.83527l-1.06694,2.80071l-0.12493,0.49973l-0.81761,5.7233l-0.53711,2.18005l-0.49454,2.19011l-2.28714,6.86143l-0.6812,4.76841l-0.0698,0.2833l-0.01909,0.29114l-0.55882,3.3529l0.03382,0.27057l-0.18776,0.65309l-0.28724,1.72345l-1.02749,3.78888l-0.6159,1.20294l-0.37341,1.29883l-0.47613,0.89625l-0.12079,0.37964l-0.28789,1.83527l-1.39754,3.66855l-0.18092,0.36183l-0.30476,0.95783l-0.41361,0.47891l-0.30615,0.6123l-0.43816,1.31448l-0.72524,1.61784l-0.63116,1.65681l-1.41318,2.82636l-0.9475,2.52666v0.46664l-0.39062,3.90625l-0.24977,0.78498l-0.05963,0.8216l-1.08806,3.77194l-1.00678,2.51695l0.04842,0.1349l1,4l0.08637,0.59016l0.17459,0.57032l0.44937,2.24684l0.36797,1.02505l0.42637,1.11922l0.01909,0.12171l0.47625,1.32669l1.33441,5.33763l3.87342,7.74684l0.41361,0.47891l0.30476,0.95783l0.18092,0.36183l1.39754,3.66855l0.28789,1.83527l0.56327,1.77027l0.39063,3.90625v0.40454l0.15576,0.993l-0.15576,0.61332v9.43752l0.18885,1.08754l-0.41988,1.77434l-0.1596,1.59598l-0.85096,2.67445l-0.6463,2.73114l-0.68427,1.45065l-0.55284,1.73751l-0.72148,0.8354l-2.22222,3.7037l-0.77606,1.55212l-0.43816,1.31448l-0.72524,1.61784l-0.17373,0.45603l0.91532,-0.11441l1.64371,0.47257l0.5291,0.05291l3.23337,1.0288l3.26101,0.93754l0.46958,0.24947l1.62979,0.51857l1.04473,0.90227l0.32277,0.17147l1.16742,0.77828l0.46508,0.14798l0.82283,0.71063l0.54467,0.36312l3.03352,2.49182l0.60907,0.76134l3.58366,3.09498l0.56514,2.09102l0.8758,1.09476l3.03352,10.94233l-2.45925,7.32185l-2.01521,7.45629l-8.59375,7.42188l-1.33597,0.42508l-1.63012,1.42635l-4.69857,0.58732l-0.92909,0.29562l-3.90625,0.39063h-0.65462l-1.07882,0.13485l-0.46905,-0.13485h-2.66348l-9.23266,0.83933l-6.36583,0.9094l-0.64216,0.02713l-1.49583,0.37989l-1.59048,-0.24949l-0.19377,0.00819l-3.55949,-0.59693l-3.5656,-0.55931l-0.18123,-0.06904l-1.58775,-0.26627l-1.29894,-0.83342l-0.60063,-0.22881l-2,-1l-3.31916,-2.09631l-0.06244,-0.06075l-0.07738,-0.04002l-0.64955,-0.53145l-5.17864,-1.47961l-3.59589,-0.89897l-1.33926,-0.48076l-1.37544,-0.36457l-3.75528,-1.40823h-19.96451l-1.99033,0.75822l-6.95224,1.09055l-0.55955,0.15123l-0.14857,-0.04015l-1.24898,0.19592l-11.00565,-2.79508l-0.33004,-0.37057c-2.28105,2.54486 -4.85536,4.8153 -7.62874,6.89849c-1.10789,1.07933 -2.03739,2.37901 -3.32368,3.23799c-0.92486,0.61762 -2.18776,0.53728 -3.15406,1.08782c-1.49233,0.85024 -2.56997,2.37106 -4.13984,3.06782c-1.64605,0.73057 -3.54053,0.67327 -5.28621,1.11577c-2.30139,0.58337 -4.6859,1.39383 -7.03967,1.08323c-2.43727,-0.32162 -4.66884,-1.61671 -7.095,-2.01355c-2.26161,-0.36993 -4.75022,-0.15178 -6.75981,-1.25327c-1.46152,-0.80108 -2.57111,-2.14207 -4,-3c-1.62694,-0.97685 -3.88447,-0.09894 -5.6303,-0.84274c-1.414,-0.60243 -2.7159,-1.42522 -3.96046,-2.34327l-2.60968,2.13519l-0.39315,0.20336l-1.74617,1.50805l-3.0386,0.96683l-2.83227,1.46497l-2.30108,0.16837l-0.4218,0.13421l-3.90625,0.39063h-2.84467l-1.85096,0.13544l-0.43206,-0.24821l-2.77856,-0.27786l-0.08302,-0.02641l-0.08711,-0.00119l-3.82932,-0.86469l-6,-2l-1.46417,-0.65635l-1.89748,-0.52604l-3.6899,-2.95192l-1.25403,-0.91395c-0.17426,0.20925 -0.37248,0.39268 -0.60906,0.53533c-0.92051,0.55502 -2.25557,-0.36309 -3.22294,0.10551c-1.04037,0.50397 -1.45086,1.81525 -2.3187,2.57894c-2.1258,1.87068 -4.92628,2.91661 -6.91997,4.9275c-1.17344,1.18356 -1.78893,2.85498 -3,4c-1.23923,1.17165 -2.95291,1.74199 -4.24746,2.8522c-1.34584,1.1542 -2.14727,2.91046 -3.62113,3.89595c-1.26126,0.84333 -3.08149,0.54866 -4.32536,1.41742c-0.98747,0.68968 -1.04697,2.27714 -2.0066,3.00506c-2.87925,2.18403 -9.31902,3.00922 -12.64689,4.31699c-2.4886,0.10095 -5.01539,-0.25733 -7.47014,0.16396c-1.0389,0.1783 -1.95936,0.83216 -3,1c-1.21412,0.19582 -5.98021,-0.12694 -7.095,0.01355c-6.89703,0.86921 -13.32052,3.7628 -20.26217,0.82843c-4.80309,-2.03036 -12.09114,-6.36379 -14.32958,-11.29831c-0.56777,-1.25161 -0.46172,-2.73543 -1,-4c-0.98476,-2.31351 -2.38166,-4.43489 -3.74182,-6.54961c-2.17257,-3.37782 -6.76366,-3.8304 -9.55687,-6.52842c-2.0742,-1.3828 -3.67195,-3.39906 -5.72936,-4.80673c-1.67323,-1.14482 -3.96749,-0.98062 -5.78405,-1.88084c-2.74191,-1.35879 -2.48959,-2.35015 -5.30208,-2.77807c-4.601,-0.70005 -9.93391,0.03228 -14.59954,0.03228c-11.08546,0 -23.70363,-1.33043 -32.15394,7.18585c-1.55805,1.87165 -3.55902,3.44227 -4.69873,5.59439c-1.8581,3.50865 -1.65622,6.08773 -4.26769,9.36809c-0.78167,0.98188 -2.2196,1.23687 -3.11187,2.11944c-0.96559,0.95509 -1.19683,2.63674 -2.37667,3.30945c-1.75356,0.99984 -8.22989,1.53126 -10.39879,2.25312c-1.5518,0.51647 -2.84317,1.71614 -4.43153,2.10595c-1.4192,0.34829 -2.92712,-0.06178 -4.38356,0.05742c-3.89579,0.31884 -8.70354,1.88383 -12.64999,0.96118c-8.06205,-1.88485 -15.41575,-6.61381 -21.49658,-11.915c-3.6865,-3.21384 -6.93348,-5.15819 -8.89965,-9.53985h-39.82559l-1.84623,0.52381l-10.78565,-3.55056l-0.07645,-0.06736l-0.09709,-0.03089l-8.59375,-7.42187l-0.50071,-1.85262l-5.84286,-9.73811l-1.22497,-2.59693l-0.14269,-0.2249l-0.1383,-0.37079l-0.16883,-0.35792l-0.06134,-0.25919l-1.00341,-2.69031l-10,-38l-0.34846,-2.19192l-0.08405,-0.26417l-0.07131,-0.71315l-0.11252,-0.70782l0.01406,-0.27686l-0.22084,-2.20843v-32l0.19344,-1.93443l-0.01545,-0.2446l0.12603,-0.86118l0.0866,-0.86604l0.07431,-0.23355l0.2815,-1.92359l1.78676,-7.14706l2.84721,-16.13419l0.23853,-0.84756l0.12749,-0.8712l6,-24l0.47625,-1.32669l0.01909,-0.12171l0.42637,-1.11922l0.40466,-1.12726l0.06471,-0.10483l0.50181,-1.31724l1,-2l0.68451,-1.08381l0.71303,-1.71128l3.54172,-3.446l3.446,-3.54172l1.16747,-0.48644c0.05067,-0.37515 0.11585,-0.74719 0.2107,-1.11275c0.84448,-3.25454 1.91403,-6.53992 3.02735,-9.7987l-4.52897,-16.98365l-3.58794,-12.55779l-3.5251,-8.81276l-0.37313,-1.29351l-0.04731,-0.0924l-0.32425,-1.19569l-0.34337,-1.19034l-0.00751,-0.10354l-0.35236,-1.29932l-1,-6l-0.03347,-0.5104l-0.11363,-0.49871l-1,-8l-0.03837,-1.55405l-0.15468,-1.54681v-12l0.21254,-2.12542l-0.01466,-0.26936l0.11691,-0.75311l0.07584,-0.75835l0.08179,-0.25706l0.32766,-2.11074l7,-27l0.43074,-1.1679l0.01096,-0.06984l0.46487,-1.2203l0.33693,-0.91355l-0.37405,-1.84822l2.49559,-5.98941l0.95987,-3.01673l0.57406,-0.6647l0.14858,-0.35658c-0.55287,-2.06628 -0.84764,-4.23807 -0.84764,-6.47871z" fill="#00ff40"/><path d="M486.53624,106.11944c0.02011,0.12546 0.03858,0.25192 0.05552,0.37932c-0.01249,-0.31235 -0.01879,-0.61284 -0.01678,-0.89877c0.01311,-1.86747 -0.77551,-3.6612 -0.96126,-5.51945c-0.05985,-0.59875 0.914,-1.26518 0.52754,-1.72642c-0.0247,-0.02948 -0.05116,-0.0553 -0.07922,-0.07781c-0.13248,0.06791 -0.27656,0.1272 -0.43326,0.17583c-0.01382,1.53801 -0.35165,3.10301 -0.10093,4.61788c0.00286,0.01646 0.00565,0.03293 0.00839,0.04942c0.18086,1.03846 0.83317,1.95919 1,3zM482.57498,146.17563c-0.47097,0.92126 -0.85822,1.87121 -1.03874,2.90491c-0.11691,0.6695 0.04552,1.3608 0,2.03891c-0.02382,0.35491 -0.46757,0.80454 -0.20713,1.04682c0.22685,0.21104 0.46021,-0.47359 0.76532,-0.52754c0.35027,-0.06193 0.89747,0.52996 1.04682,0.20713c0.19153,-0.41402 -0.50597,-0.7937 -0.56627,-1.24587c-0.1322,-0.99122 0,-2 0,-3c0,-0.47479 0,-0.94957 0,-1.42436zM486.54384,117.24596c0.03982,-0.11067 0.07707,-0.22237 0.1114,-0.33523c0.65144,-2.14147 0.33385,-5.2843 0.09725,-8.07884c0.04043,2.26 -0.1775,4.64339 -0.1775,6.7681c0,0.53721 -0.01253,1.08745 -0.03114,1.64597zM491.00871,94.84586c0.84027,1.16368 0.23253,2.86889 0.52754,4.27358c0.89839,4.2778 1.03874,8.05122 1.03874,12.48055c0,0.72448 0.02175,6.31223 -0.08025,6.68926c-0.3893,1.43898 -1.33333,2.66667 -2,4c0.19545,5.62775 0.9324,12.23319 0.04152,17.79129c-0.16683,1.04081 -0.81914,1.96154 -1,3c-0.37287,2.14096 0.03874,4.34626 0.03874,6.51945c0,2.50652 -0.16277,5.01601 -0.03874,7.51945c0.0867,1.74984 1.47288,3.79641 0.47246,5.23468c-0.90206,1.29687 -7.9717,1.64552 -9.85653,2.79782c-0.6927,0.42348 -1.04309,1.25859 -1.67523,1.76807c-2.44588,1.97129 -3.60142,1.79996 -5.46824,4.4341c-1.95557,2.75938 -2.84213,6.88018 -4,10c-1.33333,1 -2.92925,1.72279 -4,3c-0.63336,0.75549 -0.32997,2.0061 -0.88177,2.82306c-0.80573,1.19291 -1.80593,2.35179 -3.07386,3.03341c-2.13315,1.14674 -6.41414,1.77534 -8.95864,1.35066c-2.66412,-0.44465 -6.64946,-2.31857 -8.16448,-4.54569c-0.61307,-0.90123 0.28144,-2.25679 -0.12661,-3.26752c-0.35295,-0.87425 -1.70584,-1.10426 -2,-2c-0.75705,-2.30524 -0.40063,-4.86843 -1.07441,-7.19937c-0.18764,-0.64913 0.07634,-1.5249 -0.42031,-1.98308c-0.84443,-0.77901 -2.16669,-0.78929 -3.17727,-1.33579c-1.50895,-0.81601 -2.78653,-2.04883 -4.35717,-2.73867c-2.43443,-1.06922 -4.10462,1.75038 -5.62201,2.66081c-0.90388,0.54233 -2.08684,0.47345 -3,1c-1.90732,1.09981 -3.89094,4.00444 -5.45587,5.56937c-1.46716,1.31765 -1.59375,3.61095 -2.51072,5.35678c-0.8232,1.56728 -3.27886,1.99058 -3.83896,3.66995c-0.28719,0.86108 0.38748,1.86044 0.09964,2.7213c-0.41898,1.25307 -1.61004,2.12869 -2.12773,3.34431c-0.5385,1.26448 -0.45086,2.74011 -1,4c-1.89773,4.35393 -5.86438,6.80505 -8.30982,10.54047c-1.91173,2.92017 -3.59041,7.52376 -7.28568,9.01751c-0.88289,0.35689 -7.82156,0.28882 -8.56362,-0.12661c-1.378,-0.77146 -1.86408,-2.55492 -2.90445,-3.74306c-3.80536,-4.34583 -7.03491,-7.46864 -6.45161,-13.75392c-1.37364,-1.04496 -2.84629,-2.05356 -3.78031,-3.57086c-0.50309,-0.81726 -0.23869,-2.00202 -0.83217,-2.75621c-0.60424,-0.76786 -1.74727,-0.90019 -2.51785,-1.50095c-0.64029,-0.49919 -0.98511,-1.3404 -1.67523,-1.76807c-4.80287,-2.97638 -10.9811,-1.93635 -13.87085,3.02524c-0.57838,0.99305 -0.45233,2.3445 -1.16783,3.24379c-0.79064,0.99373 -2.32153,1.18937 -3.13509,2.16443c-0.89331,1.07065 -1.04628,2.60558 -1.81531,3.76872c-0.48167,0.72851 -1.39893,1.09533 -1.88177,1.82306c-1.32002,1.98949 0.09783,2.92856 -0.68068,5.29216c-0.41335,1.25494 -1.60954,2.1289 -2.12773,3.34431c-0.51489,1.20766 -0.46729,2.59854 -0.92989,3.82718c-0.42802,1.13682 -3.16812,6.27069 -3.89391,7.64842c0.04495,3.0225 0.37221,3.7934 -1.36779,6.88793c-0.49623,0.88253 -1.54569,1.34189 -2.11823,2.17694c-2.46618,3.59691 -1.82206,6.79569 -7.83193,6.21932c-4.8388,-0.46406 -9.76761,-8.05904 -11.37344,-11.82541c-1.47805,-3.46665 -1.22836,-6.49285 -1.22836,-10.14805c0,-7.51001 0.45605,-16.82604 4.44805,-23.57719c0.40282,-0.68124 1.48164,-0.83796 1.78031,-1.57086c0.29438,-0.72238 -0.31254,-1.56218 -0.18962,-2.3325c0.19135,-1.19917 0.74347,-2.31209 1.11521,-3.46814c0.61603,-1.84808 1.61505,-3.60258 1.88479,-5.53186c0.30091,-2.15226 -0.14091,-4.34867 -0.03874,-6.51945c0.02924,-0.6213 0.45412,-1.27238 0.22836,-1.85195c-0.89763,-2.30442 -3.35651,-2.21044 -5.22836,-2.14805c-2.17198,0.07239 -4.37849,-0.41161 -6.51945,-0.03874c-1.03846,0.18086 -1.95787,0.84163 -3,1c-0.77121,0.1172 -1.61011,-0.48401 -2.3325,-0.18962c-0.7329,0.29867 -0.8873,1.38144 -1.57086,1.78031c-0.72581,0.42352 -1.86167,-0.02484 -2.45587,0.56937c-0.59421,0.59421 -0.14452,1.73084 -0.56937,2.45587c-0.68876,1.17543 -3.19246,2.7765 -3.68068,4.29216c-0.62669,1.94556 0.13931,4.08668 0.12872,6.13065c-0.01332,2.5714 -0.61155,5.14562 -1.44805,7.57719c-3.21078,3.14388 -1.90955,5.93624 -3.94135,9.9009c-2.03378,3.96854 -7.32876,7.15573 -10.70863,9.84193c-2.54794,2.025 -2.68774,3.86709 -6.90197,3.67997c-1.81655,-0.08066 -3.72053,-0.7193 -5.12132,-1.87868c-0.98144,-0.8123 -0.77517,-2.45169 -1.43063,-3.54413c-0.85205,-1.42008 -2.39834,-2.28485 -3.56937,-3.45587c-1.0641,-1.0641 -1.59917,-2.87356 -3.02673,-3.34968c-0.86108,-0.28719 -1.86807,0.40935 -2.7213,0.09964c-2.24279,-0.81411 -3.65474,-3.10374 -5.70784,-4.31932c-0.90703,-0.53703 -2.0989,-0.45307 -3,-1c-2.26534,-1.37497 -3.97423,-3.51183 -6.06783,-5.13638c-0.18849,-2.34538 -0.94385,-4.61174 -1.31624,-6.93503c-0.55956,-3.49105 -0.03874,-8.00249 -0.03874,-11.48055c0,-2.43482 0.8821,-6.25633 -0.55195,-8.42281c-0.54094,-0.81722 -1.61932,-1.22305 -2.05865,-2.0991c-0.85633,-1.70756 -0.08942,-3.93401 -1.96659,-4.92614c-2.59459,-1.3713 -4.93221,-0.38234 -7.47412,0.2941c-0.59528,0.15841 -1.39179,-0.1603 -1.82736,0.27527c-0.43557,0.43557 -0.11223,1.23334 -0.27527,1.82736c-0.5846,2.12989 -2.28545,3.82234 -2.97477,5.92067c-0.3121,0.95005 0.31797,2.0519 0,3c-0.42012,1.25269 -1.60201,2.13214 -2.12773,3.34431c-0.46952,1.08256 -0.54442,2.29634 -0.81663,3.4445c-1.1377,5.68849 -1.87737,11.57354 -5.60689,16.2438c-1.32714,1.6619 -4.54657,4.43329 -6.45067,4.96931c-5.387,1.51647 -11.68462,-1.56127 -14.4213,-6.29408c-1.86136,-3.21902 -1.4318,-5.02103 -1.44805,-8.57719c-0.02182,-4.77778 0.55232,-9.95449 0.0146,-14.70439c-0.31337,-2.76813 -1.13019,-5.5122 -1.0146,-8.29561c0.02581,-0.62146 0.48826,-1.28686 0.22836,-1.85195c-0.39396,-0.85655 -1.64985,-1.12462 -2,-2c-0.37139,-0.92848 0,-2 0,-3c-2.25814,-1.99247 -1.97717,-4.27528 -3.64394,-6.50303c-0.41505,-0.55475 -0.99678,0.9639 -1.46311,1.4763c-0.52684,0.57889 -1.25887,0.97793 -1.68759,1.63281c-2.94642,4.50066 -5.40182,8.70587 -5.43373,14.24587c-0.009,1.56329 0.28721,3.16974 -0.08025,4.68926c-0.37879,1.56633 -1.54297,2.84169 -2.10609,4.35158c-1.07857,2.89196 -0.66958,4.79142 -2.2617,7.53635c-0.47304,0.81555 -1.51493,1.19155 -2,2c-0.54233,0.90388 -0.44534,2.10364 -1,3c-2.0736,3.35107 -6.49732,6.60357 -9.4039,9.19445c-4.39381,0.1949 -8.75097,0.25113 -13.14805,0.22836c-2.89196,-0.01498 -5.63265,0.32825 -8.12132,-1.87868c-0.95319,-0.84528 -0.77517,-2.45169 -1.43063,-3.54413c-0.98928,-1.64881 -3.16569,-2.3962 -4.05865,-4.0991c-0.68304,-1.30257 -0.55106,-2.91365 -1.13294,-4.26444c-0.98412,-2.28454 -2.78101,-4.28426 -3.21772,-6.73311c-0.57767,-3.23926 -0.12146,-7.18359 -0.03874,-10.48055c0.01785,-0.71129 0.34687,-1.4534 0.12872,-2.13065c-0.63103,-1.95903 -3.21691,-4.43064 -5.30774,-2.48523c-1.46683,1.36481 -2.28956,3.31386 -3.69966,4.7372c-0.44989,0.34224 -1.17084,0.49049 -1.34968,1.02673c-0.28719,0.86108 0.38577,1.85987 0.09964,2.7213c-0.37885,1.14058 -1.61884,1.86019 -2,3c-0.34677,1.03696 0.30448,2.26271 -0.09964,3.2787c-0.34846,0.87605 -1.64705,1.12575 -2,2c-0.40805,1.01073 0.43221,2.33168 -0.12661,3.26752c-0.69249,1.15968 -2.42176,1.347 -3.2609,2.40541c-0.73178,0.923 -0.4233,2.4741 -1.2628,3.30034c-0.90799,0.89365 -2.45705,0.76631 -3.54413,1.43063c-0.93592,0.57195 -1.40119,1.83708 -2.42914,2.21969c-4.10771,1.5289 -9.19698,0.35819 -11.7,-3.19445c-0.66307,-0.94112 -0.6324,-2.22731 -1.14299,-3.25914c-0.60288,-1.21832 -1.76795,-2.15217 -2.17633,-3.4487c-0.7973,-2.53127 0.8946,-5.91871 -0.68068,-8.29216c-0.52137,-0.78554 -1.53983,-1.17712 -2,-2c-1.76405,-3.15453 -1.41147,-4.29108 -1.44805,-7.57719c0,-3.30662 -0.00415,-5.88767 -0.84605,-9.05132c-0.15841,-0.59528 0.1603,-1.39179 -0.27527,-1.82736c-0.43557,-0.43557 -1.23209,-0.11686 -1.82736,-0.27527c-3.67681,-0.97846 -6.41872,-1.23714 -10.10263,0c-0.42937,0.14419 -4.04501,1.11472 -4.49644,1.8821c-0.53455,0.90868 -0.30737,2.09009 -0.57189,3.11062c-0.90223,3.48093 -0.88036,6.53624 -0.88036,10.16124c0,0.90187 0.03325,6.37356 -0.12872,6.86935c-0.46341,1.41847 -1.53749,2.55976 -2.37513,3.79475c-2.6244,3.86934 -2.88061,5.24704 -8.42478,5.33505c-2.20864,0.03506 -4.32463,-0.90275 -6.48694,-1.35413c-2.66673,-2.48731 -6.19645,-5.18207 -7.4557,-8.77567c-0.39414,-1.1248 0.03946,-2.39182 -0.11412,-3.57374c-0.86955,-6.69166 -1.7364,-13.84414 -0.99212,-20.66216c0.14914,-1.36625 0.82268,-2.63712 1,-4c0.1937,-1.4888 -0.30484,-3.05883 0.10625,-4.5028c0.36177,-1.27077 1.60201,-2.13214 2.12773,-3.34431c1.91346,-4.41187 3.09039,-12.64048 1.13294,-17.30824c-0.98774,-2.35539 -6.97621,-2.51683 -8.90885,-2.51683c-1.16117,0.36036 -4.34989,1.83767 -4.70891,3.18679c-0.28613,1.07521 0.33654,2.22961 0.18962,3.3325c-0.31541,2.36777 -1.69228,4.51517 -1.98374,6.886c-0.62244,5.06323 0.14996,10.52649 0.02248,15.63345c-0.1226,4.91125 0.78378,5.25319 -3.09803,8.32003c-3.97563,3.14096 -4.82225,3.51619 -9.47916,1.23193c-0.84646,-0.4152 -1.19503,-1.50917 -2,-2c-1.03142,-0.62891 -2.52991,-0.4357 -3.38841,-1.28559c-1.21834,-1.20613 -1.49867,-3.09828 -2.46812,-4.51223c-0.57254,-0.83505 -1.62199,-1.29441 -2.11823,-2.17694c-1.91399,-3.40395 -1.44805,-6.88549 -1.44805,-10.57719c0,-9 0,-18 0,-27c0,-2.66667 0,-5.33333 0,-8c0,-1 -0.04701,-2.00111 0,-3c0.03296,-0.70034 0.92625,-2.41598 0.31074,-2.08025c-1.1924,0.65039 -2.56603,0.93814 -3.73355,1.63221c-2.66682,1.58536 -5.24133,5.35483 -7.45587,7.56937c0,0 -2.12132,2.12132 -4.24264,0c-2.12132,-2.12132 0,-4.24264 0,-4.24264c0.38206,-0.38206 0.75932,-0.77261 1.13437,-1.16747c0.08364,-0.6128 0.30367,-1.05285 0.30367,-1.05285l0.68328,-0.65836c0,-5.66667 0,-11.33333 0,-17c0,-3.88871 0.55956,-7.98436 -0.69495,-11.68195c-0.72544,-1.14957 -1.76795,-2.15217 -2.17633,-3.4487c-0.38771,-1.23088 -0.10455,-2.57908 -0.12872,-3.86935c-0.05558,-2.96581 -0.42915,-6.56149 0.03874,-9.48055c0.16683,-1.04081 0.82561,-1.96043 1,-3c0.17696,-1.05492 -0.24995,-2.17953 0.04152,-3.20871c0.07448,-0.263 0.17616,-0.51556 0.2949,-0.76155c-0.4571,-1.23884 -0.84525,-2.47262 -1.22121,-3.60049c0,0 -0.06073,-0.18219 -0.10536,-0.46974c-0.04859,-0.28691 -0.04859,-0.47895 -0.04859,-0.47895c0.00096,-0.01738 0.00185,-0.03477 0.00268,-0.05218c-0.00172,-0.10222 0.00072,-0.2092 0.00884,-0.31941c0.01209,-1.27138 -0.22315,-2.59435 0.21684,-3.77646c0.57208,-1.53703 2.4116,-2.52744 2.76854,-4.09486c-0.15868,-1.80132 -0.23406,-3.57624 0.04185,-5.23764c0.01732,-0.10431 0.14937,-0.53604 0.34366,-1.13918c-0.0383,-0.60988 -0.11731,-1.13701 -0.25368,-1.51091c-0.41181,-1.1291 -1.67128,-1.84398 -2,-3c-0.2517,-0.88518 -0.30325,-1.82045 -0.25462,-2.7526l-0.99543,-0.99543c-0.95956,-1.37377 -2.78509,-2.44822 -2.87868,-4.12132c-0.0807,-1.44263 1.77718,-2.2975 2.44805,-3.57719c0.48942,-0.93358 0.44534,-2.10364 1,-3c0.9121,-1.47401 3.15116,-1.95568 3.78031,-3.57086c0.22576,-0.57957 -0.19912,-1.23065 -0.22836,-1.85195c-0.09403,-1.99779 0,-4 0,-6c0,-3.64228 -1.03315,-9.44355 0.12872,-12.86935c1.48819,-4.38797 5.83556,-6.61726 8.55125,-10.03261c2.83188,-3.56148 6.14389,-6.57971 9.05366,-10.06364c1.13119,-1.3544 1.95594,-2.96694 3.20472,-4.21376c3.5467,-3.54115 8.25493,-5.96279 12.55587,-8.41537c1.16128,-0.66221 5.69962,-4.00582 6.63643,-4.27655c0.75466,-0.21809 7.01486,-0.10484 8.3499,-0.08999c6.18601,1.98917 12.67823,4.62585 19,6c1.10421,0.24002 2.31553,-0.26353 3.38881,0.08999c1.25494,0.41335 2.1273,1.61331 3.34431,2.12773c4.78018,2.02058 10.68815,2.44575 15.67827,3.8792c3.54346,1.01788 6.96477,3.45263 10.61722,3.90786c1.75604,0.21887 3.56683,-0.21399 5.3079,0.10263c1.95833,0.35613 3.70395,1.54317 5.6635,1.89258c1.58012,0.28175 3.2179,-0.18294 4.81507,-0.02414c1.69133,0.16816 3.31367,0.78741 5,1c6.62699,0.83545 13.30527,0.87834 19.95183,1.99562c7.01196,-0.01246 14.14736,-0.42926 21.12055,0.34554c1.93281,0.21476 3.86629,0.42361 5.79791,0.64883c0.56313,0.06566 1.21377,0.53742 1.68605,0.22377c1.57077,-1.04318 2.28821,-3.20922 4,-4c1.56087,-0.72106 3.43408,-0.19135 5.15305,-0.22836c5.03948,-0.10848 9.47515,1.31902 14.36133,2.02245c2.88704,0.41562 5.83357,-0.02282 8.75037,-0.02377c2.13723,-0.0007 9.37125,0.0744 11.58428,-0.23325c3.72672,-0.51808 7.49002,-1.19596 10.989,-2.57943c1.96569,-0.77722 3.54011,-2.4011 5.54001,-3.08549c1.1894,-0.40703 2.51296,-0.08757 3.77,-0.1005c3.99979,-0.04114 8,0 12,0c6.33917,0.0038 13.0153,0.23606 19.29561,1.0146c4.3771,0.54261 4.4616,1.45474 8.40877,1c2.65356,-0.30571 5.12425,-1.58618 7.76796,-1.96783c5.70442,-0.82351 12.02338,-1.21317 17.78233,-0.95704c11.10661,0.49395 21.8919,3.1833 32.94401,3.91686c7.51546,0.49882 15.26482,-0.00659 22.80132,-0.00659c2.52679,0.02166 5.01659,-0.61372 7.51945,-0.96126c7.96794,-1.10642 16.84581,0.0846 24.72799,0.97148c2.3702,0.26669 4.79076,-0.28792 7.15544,0.02399c6.20606,0.8186 11.69635,3.56703 17.68127,5.12594c5.63947,1.46893 11.67918,2.13658 17.43212,3.02618c5.90482,0.91309 11.52146,0.81367 17.48372,0.81367c4.39157,0 8.30332,-0.35367 12.48055,1.03874c2.64902,-0.01108 5.26526,0.59754 7.886,0.98374c2.13372,0.31443 4.17951,-0.52836 6.32271,0.05778c3.72611,1.01903 7.89825,3.60502 11.45879,5.14811c1.11316,0.48243 2.40691,0.56632 3.42914,1.21969c2.34646,1.49975 3.31173,4.48077 4.85653,6.79782c0.56164,0.84241 1.60518,1.30408 2.11823,2.17694c1.06828,1.81748 0.89042,4.20744 2,6c0.49622,0.80166 1.53983,1.17712 2,2c0.70483,1.2604 1.13824,2.67822 1.40931,4.09665c1.38647,7.25496 -1.06334,14.64307 -3.57714,21.30153c-1.16072,0.83302 -2.36319,1.61073 -3.48215,2.49905c-0.96257,0.76416 -1.57821,2.09355 -2.75392,2.45161c-0.29274,0.08915 -0.59214,0.16205 -0.89593,0.2191c-0.04015,1.23906 -0.12292,2.37239 -0.25211,3.19172v2.45388c0.82917,2.51707 2.09071,7.30293 0.96126,9.84419c-0.06573,0.14788 -0.13554,0.29342 -0.20902,0.43687l0.0938,0.03127l-0.97812,2.93437c-0.0571,0.18566 -0.13173,0.36365 -0.22197,0.53202c-0.06057,2.11266 -0.01751,4.19341 0.3153,6.10438c0.52777,3.03038 1.51355,5.96508 2,9c0.47409,2.95778 0.03874,6.47754 0.03874,9.48055c0,5.24271 0,10.48541 0,15.72812c1.54745,-1.03342 3.16778,-2.11219 3.3359,-2.22427l2.6641,-0.50385c0,0 3,0 3,3c0,3 -3,3 -3,3l0.6641,-0.50385c-2.11799,1.412 -4.0163,2.83893 -5.83167,4.3556c0.99688,0.32036 2.03437,0.60896 2.60131,1.39411z" fill="#ffffff"/></g></g></svg>