<svg version="1.1" xmlns="http://www.w3.org/2000/svg" xmlns:xlink="http://www.w3.org/1999/xlink" width="556.56822" height="453.59752" viewBox="0,0,556.56822,453.59752"><g transform="translate(36.42499,55.40381)"><g data-paper-data="{&quot;isPaintingLayer&quot;:true}" fill="#ffffff" fill-rule="nonzero" stroke="none" stroke-width="0.5" stroke-linecap="butt" stroke-linejoin="miter" stroke-miterlimit="10" stroke-dasharray="" stroke-dashoffset="0" style="mix-blend-mode: normal"><path d="M-12.42502,53.6v-4l0.39063,-3.90625l0.02641,-0.08302l0.00119,-0.08711l0.86469,-3.82932l0.69638,-2.08915l0.0207,-0.0828v-4.92236l0.24512,-2.45122l0.24036,-2.45169l1,-5l0.51452,-1.68076v-6.41634l0.02525,-0.25246l-1.3557,-3.25369l0.54582,-2.69701l-0.21537,-0.79685l1.49939,-5.54774l1.13993,-5.6326l0.54899,-0.61641l0.71794,-2.65637l7.13919,-6.16566l1.55137,-1.74189l7.08381,-1.79906l1.41313,-0.44963l0.58936,-0.05894l1.91935,-0.48745l1.15049,0.18047l0.24705,-0.0247h5.06861l0.23576,-0.13544l1.85096,0.13544h2.84467l3.90625,0.39063l0.4218,0.13421l2.30108,0.16837l2.83227,1.46497l3.0386,0.96683l1.74617,1.50805l0.39315,0.20336l2.09614,1.71503l0.7525,0.33733l1.5013,1.09417l1.65006,0.85348l1.42529,1.16615l0.84108,0.28036l1.61784,0.72524l1.65681,0.63116l0.72136,0.36068h9.44553l2.5764,-0.58177l0.08711,-0.00119l0.08302,-0.02641l3.90625,-0.39062h10.92236l1.01425,-0.25356l1.92359,-0.2815l0.23355,-0.07431l0.86604,-0.0866l0.86118,-0.12603l0.2446,0.01545l1.93443,-0.19344h0.92236l1.01425,-0.25356l1.49216,-0.21836l1.47037,-0.33502l8,-1l1.55405,-0.03837l1.54681,-0.15468h16l1.54681,0.15468l1.55405,0.03837l4.60545,0.57568c2.27738,-0.82117 4.73326,-1.26873 7.29368,-1.26873c3.90557,0 7.56792,1.04137 10.72451,2.8616c0.18234,-0.37039 0.35332,-0.74604 0.50772,-1.12938c3.43811,-1.38486 6.64812,-4.51271 10.04331,-5.62496c1.18028,-0.38666 2.48262,-0.08746 3.72446,-0.10727c3.33051,-0.05313 6.6693,0 10,0c2.01667,0 4.03335,0 6.05002,0l0.71127,-0.19224l1.05836,-0.66844l16,-8l1.92721,-0.73417l1.90099,-0.79962l12.72219,-3.91452l8.72426,-2.90809l3.82932,-0.86469l0.08711,-0.00119l0.08302,-0.02641l3.90625,-0.39062h7l3.90625,0.39063l0.08302,0.02641l0.08711,0.00119l3.82932,0.86469l6,2l0.83461,0.37413l0.87508,0.26603l10.44934,4.35389l13.37684,3.56716l0.89134,0.33578l0.92586,0.22364l2.92389,1.02336c0.32733,-0.41513 0.67405,-0.81559 1.0496,-1.19466c0.90314,-0.91159 2.1941,-1.34757 3.18279,-2.16559c1.19791,-0.99112 2.00177,-2.47348 3.35323,-3.24214c2.6063,-1.48238 5.95494,-1.29532 8.548,-2.80074c0.91846,-0.53322 1.42858,-1.62848 2.35762,-2.14305c1.71358,-0.94911 3.5494,-1.73296 5.45553,-2.18447c1.43771,-0.34055 2.96983,0.07041 4.42971,-0.15706c1.05488,-0.16437 1.98309,-0.85923 3.04043,-1.0069c0.30118,-0.04206 7.87166,-0.03228 8.40046,-0.03228c6.11812,0 12.80479,-0.81461 18.7075,1.11359c1.46603,0.4789 2.7099,1.49558 4.15318,2.03923c1.41164,0.53173 3.06573,0.41568 4.37107,1.17168c1.41652,0.82038 2.35735,2.27182 3.53602,3.40773c2.55741,2.55741 5.01523,5.55252 7.81721,7.83441c1.07841,0.87825 2.56917,1.30186 3.40179,2.41587c1.95134,2.61079 2.00014,8.28122 1.54221,11.51748h1.471l1.93443,0.19344l0.2446,-0.01545l0.86118,0.12603l0.86604,0.0866l0.23355,0.07431l1.92359,0.2815l1.01425,0.25356h0.7155l29.759,-2.8799l19.96026,-1.99603h1.24689l1.2407,-0.12407h2.52451l2.57258,-0.51452l2.45169,-0.24036l2.45122,-0.24512h16l3.90625,0.39063l0.08302,0.02641l0.08711,0.00119l2.5764,0.58177h2.34723l3.90625,0.39063l0.4218,0.13421l2.30108,0.16837l2.52647,1.3068h4.8444l0.24705,0.0247l1.15049,-0.18047l1.91935,0.48745l0.58936,0.05894l1.41313,0.44963l7.08381,1.79906l1.55137,1.74189l7.13919,6.16566l0.71794,2.65637l0.54899,0.61641l1.13993,5.6326l1.49939,5.54774l-0.21537,0.79685l0.54582,2.69701l-2.78074,6.67377l0.972,1.215l0.68843,1.06215l0.05421,0.05572l0.68987,1.0923l0.70267,1.08412l0.02787,0.07257l0.6759,1.07017l0.10071,0.20143l0.41361,0.47891l0.30476,0.95783l0.18092,0.36183l1.39754,3.66855l0.28789,1.83527l0.56327,1.77027l0.37768,3.77685l0.2665,1.06601l0.2815,1.92359l0.07431,0.23355l0.0866,0.86604l0.12603,0.86118l-0.01545,0.2446l0.19344,1.93443v16l-0.27265,2.72649l0.00828,0.27827l-0.08093,0.44825l-0.04532,0.45324l-0.08441,0.26529l-0.48687,2.69649l-1.0381,3.63335v3.49863l-0.03637,0.36368l0.17122,1.36976l-0.47257,1.64371l-0.05291,0.5291l-1.0288,3.23337l-0.93754,3.26101l-0.23391,0.4403l-0.69204,3.06477l-0.37971,1.13913l-0.62974,3.77845l-0.95889,6.71226l-0.44695,1.81409l-0.35613,1.83408l-1.94566,6.48552v3.33078l-0.27265,2.72649l0.00828,0.27827l-0.08093,0.44825l-0.04532,0.45324l-0.08441,0.26529l-0.00893,0.04947l5.98397,1.90399l0.42702,0.36879l1.52611,0.41246l3.07736,3.56326l3.56326,3.07736l0.41246,1.52611l0.36879,0.42702l2.73438,8.59375l0.39063,3.90625v15.98913l0.15576,0.61332l-0.15576,0.993v0.40454l-0.39062,3.90625l-0.56327,1.77027l-0.28789,1.83527l-1.06694,2.80071l-0.12493,0.49973l-0.81761,5.7233l-0.53711,2.18005l-0.49454,2.19011l-2.28714,6.86143l-0.6812,4.76841l-0.0698,0.2833l-0.01909,0.29114l-0.55882,3.3529l0.03382,0.27057l-0.18776,0.65309l-0.28724,1.72345l-1.02749,3.78888l-0.6159,1.20294l-0.37341,1.29883l-0.47613,0.89625l-0.12079,0.37964l-0.28789,1.83527l-1.39754,3.66855l-0.18092,0.36183l-0.30476,0.95783l-0.41361,0.47891l-0.30615,0.6123l-0.43816,1.31448l-0.72524,1.61784l-0.63116,1.65681l-1.41318,2.82636l-0.9475,2.52666v0.46664l-0.39062,3.90625l-0.24977,0.78498l-0.05963,0.8216l-1.08806,3.77194l-1.00678,2.51695l0.04842,0.1349l1,4l0.08637,0.59016l0.17459,0.57032l0.44937,2.24684l0.36797,1.02505l0.42637,1.11922l0.01909,0.12171l0.47625,1.32669l1.33441,5.33763l3.87342,7.74684l0.41361,0.47891l0.30476,0.95783l0.18092,0.36183l1.39754,3.66855l0.28789,1.83527l0.56327,1.77027l0.39063,3.90625v0.40454l0.15576,0.993l-0.15576,0.61332v9.43752l0.18885,1.08754l-0.41988,1.77434l-0.1596,1.59598l-0.85096,2.67445l-0.6463,2.73114l-0.68427,1.45065l-0.55284,1.73751l-0.72148,0.8354l-2.22222,3.7037l-0.77606,1.55212l-0.43816,1.31448l-0.72524,1.61784l-0.17373,0.45603l0.91532,-0.11441l1.64371,0.47257l0.5291,0.05291l3.23337,1.0288l3.26101,0.93754l0.46958,0.24947l1.62979,0.51857l1.04473,0.90227l0.32277,0.17147l1.16742,0.77828l0.46508,0.14798l0.82283,0.71063l0.54467,0.36312l3.03352,2.49182l0.60907,0.76134l3.58366,3.09498l0.56514,2.09102l0.8758,1.09476l3.03352,10.94233l-2.45925,7.32185l-2.01521,7.45629l-8.59375,7.42188l-1.33597,0.42508l-1.63012,1.42635l-4.69857,0.58732l-0.92909,0.29562l-3.90625,0.39063h-0.65462l-1.07882,0.13485l-0.46905,-0.13485h-2.66348l-9.23266,0.83933l-6.36583,0.9094l-0.64216,0.02713l-1.49583,0.37989l-1.59048,-0.24949l-0.19377,0.00819l-3.55949,-0.59693l-3.5656,-0.55931l-0.18123,-0.06904l-1.58775,-0.26627l-1.29894,-0.83342l-0.60063,-0.22881l-2,-1l-3.31916,-2.09631l-0.06244,-0.06075l-0.07738,-0.04002l-0.64955,-0.53145l-5.17864,-1.47961l-3.59589,-0.89897l-1.33926,-0.48076l-1.37544,-0.36457l-3.75528,-1.40823h-19.96451l-1.99033,0.75822l-6.95224,1.09055l-0.55955,0.15123l-0.14857,-0.04015l-1.24898,0.19592l-11.00565,-2.79508l-0.33004,-0.37057c-2.28105,2.54486 -4.85536,4.8153 -7.62874,6.89849c-1.10789,1.07933 -2.03739,2.37901 -3.32368,3.23799c-0.92486,0.61762 -2.18776,0.53728 -3.15406,1.08782c-1.49233,0.85024 -2.56997,2.37106 -4.13984,3.06782c-1.64605,0.73057 -3.54053,0.67327 -5.28621,1.11577c-2.30139,0.58337 -4.6859,1.39383 -7.03967,1.08323c-2.43727,-0.32162 -4.66884,-1.61671 -7.095,-2.01355c-2.26161,-0.36993 -4.75022,-0.15178 -6.75981,-1.25327c-1.46152,-0.80108 -2.57111,-2.14207 -4,-3c-1.62694,-0.97685 -3.88447,-0.09894 -5.6303,-0.84274c-1.414,-0.60243 -2.7159,-1.42522 -3.96046,-2.34327l-2.60968,2.13519l-0.39315,0.20336l-1.74617,1.50805l-3.0386,0.96683l-2.83227,1.46497l-2.30108,0.16837l-0.4218,0.13421l-3.90625,0.39063h-2.84467l-1.85096,0.13544l-0.43206,-0.24821l-2.77856,-0.27786l-0.08302,-0.02641l-0.08711,-0.00119l-3.82932,-0.86469l-6,-2l-1.46417,-0.65635l-1.89748,-0.52604l-3.6899,-2.95192l-1.25403,-0.91395c-0.17426,0.20925 -0.37248,0.39268 -0.60906,0.53533c-0.92051,0.55502 -2.25557,-0.36309 -3.22294,0.10551c-1.04037,0.50397 -1.45086,1.81525 -2.3187,2.57894c-2.1258,1.87068 -4.92628,2.91661 -6.91997,4.9275c-1.17344,1.18356 -1.78893,2.85498 -3,4c-1.23923,1.17165 -2.95291,1.74199 -4.24746,2.8522c-1.34584,1.1542 -2.14727,2.91046 -3.62113,3.89595c-1.26126,0.84333 -3.08149,0.54866 -4.32536,1.41742c-0.98747,0.68968 -1.04697,2.27714 -2.0066,3.00506c-2.87925,2.18403 -9.31902,3.00922 -12.64689,4.31699c-2.4886,0.10095 -5.01539,-0.25733 -7.47014,0.16396c-1.0389,0.1783 -1.95936,0.83216 -3,1c-1.21412,0.19582 -5.98021,-0.12694 -7.095,0.01355c-6.89703,0.86921 -13.32052,3.7628 -20.26217,0.82843c-4.80309,-2.03036 -12.09114,-6.36379 -14.32958,-11.29831c-0.56777,-1.25161 -0.46172,-2.73543 -1,-4c-0.98476,-2.31351 -2.38166,-4.43489 -3.74182,-6.54961c-2.17257,-3.37782 -6.76366,-3.8304 -9.55687,-6.52842c-2.0742,-1.3828 -3.67195,-3.39906 -5.72936,-4.80673c-1.67323,-1.14482 -3.96749,-0.98062 -5.78405,-1.88084c-2.74191,-1.35879 -2.48959,-2.35015 -5.30208,-2.77807c-4.601,-0.70005 -9.93391,0.03228 -14.59954,0.03228c-11.08546,0 -23.70363,-1.33043 -32.15394,7.18585c-1.55805,1.87165 -3.55902,3.44227 -4.69873,5.59439c-1.8581,3.50865 -1.65622,6.08773 -4.26769,9.36809c-0.78167,0.98188 -2.2196,1.23687 -3.11187,2.11944c-0.96559,0.95509 -1.19683,2.63674 -2.37667,3.30945c-1.75356,0.99984 -8.22989,1.53126 -10.39879,2.25312c-1.5518,0.51647 -2.84317,1.71614 -4.43153,2.10595c-1.4192,0.34829 -2.92712,-0.06178 -4.38356,0.05742c-3.89579,0.31884 -8.70354,1.88383 -12.64999,0.96118c-8.06205,-1.88485 -15.41575,-6.61381 -21.49658,-11.915c-3.6865,-3.21384 -6.93348,-5.15819 -8.89965,-9.53985h-39.82559l-1.84623,0.52381l-10.78565,-3.55056l-0.07645,-0.06736l-0.09709,-0.03089l-8.59375,-7.42187l-0.50071,-1.85262l-5.84286,-9.73811l-1.22497,-2.59693l-0.14269,-0.2249l-0.1383,-0.37079l-0.16883,-0.35792l-0.06134,-0.25919l-1.00341,-2.69031l-10,-38l-0.34846,-2.19192l-0.08405,-0.26417l-0.07131,-0.71315l-0.11252,-0.70782l0.01406,-0.27686l-0.22084,-2.20843v-32l0.19344,-1.93443l-0.01545,-0.2446l0.12603,-0.86118l0.0866,-0.86604l0.07431,-0.23355l0.2815,-1.92359l1.78676,-7.14706l2.84721,-16.13419l0.23853,-0.84756l0.12749,-0.8712l6,-24l0.47625,-1.32669l0.01909,-0.12171l0.42637,-1.11922l0.40466,-1.12726l0.06471,-0.10483l0.50181,-1.31724l1,-2l0.68451,-1.08381l0.71303,-1.71128l3.54172,-3.446l3.446,-3.54172l1.16747,-0.48644c0.05067,-0.37515 0.11585,-0.74719 0.2107,-1.11275c0.84448,-3.25454 1.91403,-6.53992 3.02735,-9.7987l-4.52897,-16.98365l-3.58794,-12.55779l-3.5251,-8.81276l-0.37313,-1.29351l-0.04731,-0.0924l-0.32425,-1.19569l-0.34337,-1.19034l-0.00751,-0.10354l-0.35236,-1.29932l-1,-6l-0.03347,-0.5104l-0.11363,-0.49871l-1,-8l-0.03837,-1.55405l-0.15468,-1.54681v-12l0.21254,-2.12542l-0.01466,-0.26936l0.11691,-0.75311l0.07584,-0.75835l0.08179,-0.25706l0.32766,-2.11074l7,-27l0.43074,-1.1679l0.01096,-0.06984l0.46487,-1.2203l0.33693,-0.91355l-0.37405,-1.84822l2.49559,-5.98941l0.95987,-3.01673l0.57406,-0.6647l0.14858,-0.35658c-0.55287,-2.06628 -0.84764,-4.23807 -0.84764,-6.47871z"/><path d="M-5.74695,301.58789c-2.67807,-0.20655 -2.67807,-2.9879 -2.67807,-2.9879c0,-1 0,-4 0,-5c0,-3.30468 0.58491,-7.25852 0.03874,-10.51945c-0.57689,-3.4443 -2.01689,-5.82495 -2.03874,-9.48055c-0.02367,-3.95966 -0.60888,-8.58085 0.03874,-12.48055c0.34537,-2.0797 1.65175,-3.92078 2,-6c0.49987,-2.98444 -0.03874,-6.48017 -0.03874,-9.51945c0,-7.33333 0,-14.66667 0,-22c0,-9 0,-18 0,-27c0,-3.23174 -0.07898,-6.3295 0.12738,-9.3266c-0.0303,-0.06385 -0.05985,-0.12813 -0.08862,-0.19285c-0.47122,-1.06025 -0.03273,-2.32031 -0.03874,-3.48055c-0.02416,-4.6663 0,-9.33363 0,-14c0,-11.33333 0,-22.66667 0,-34l1.72091,-1.29069c0.15815,-5.42489 1.22811,-11.00195 0.31781,-16.22876c-0.18086,-1.03846 -0.83317,-1.95919 -1,-3c-0.57182,-3.56749 -0.32881,-7.54207 -0.15635,-11.35556c-0.00122,-0.00122 -0.00244,-0.00244 -0.00366,-0.00366c-2.12132,-2.12132 0,-4.24264 0,-4.24264c0.04033,-0.04033 0.08062,-0.08076 0.12085,-0.12128c-0.01107,-3.20602 -0.23286,-6.56293 0.00042,-9.7574c0.11624,-1.59167 -0.27446,-3.39762 0.56627,-4.75413c0.2943,-0.47485 0.83843,-0.63363 1.43377,-0.72761c0,-1.50608 0,-3.01217 0,-4.51825c0,-3.88871 0.55956,-7.98436 -0.69495,-11.68195c-0.72544,-1.14957 -1.76795,-2.15217 -2.17633,-3.4487c-0.38771,-1.23088 -0.10455,-2.57908 -0.12872,-3.86935c-0.05558,-2.96581 -0.42915,-6.56149 0.03874,-9.48055c0.16683,-1.04081 0.82561,-1.96043 1,-3c0.17696,-1.05492 -0.24995,-2.17953 0.04152,-3.20871c0.07448,-0.263 0.17616,-0.51556 0.2949,-0.76155c-0.4571,-1.23884 -0.84525,-2.47262 -1.22121,-3.60049c0,0 -0.06073,-0.18219 -0.10536,-0.46974c-0.04859,-0.28691 -0.04859,-0.47895 -0.04859,-0.47895c0.00096,-0.01738 0.00185,-0.03477 0.00268,-0.05218c-0.00172,-0.10222 0.00072,-0.2092 0.00884,-0.31941c0.01209,-1.27138 -0.22315,-2.59435 0.21684,-3.77646c0.57208,-1.53703 2.4116,-2.52744 2.76854,-4.09486c-0.15868,-1.80132 -0.23406,-3.57624 0.04185,-5.23764c0.01732,-0.10431 0.14937,-0.53604 0.34366,-1.13918c-0.0383,-0.60988 -0.11731,-1.13701 -0.25368,-1.51091c-0.41181,-1.1291 -1.67128,-1.84398 -2,-3c-0.2517,-0.88518 -0.30325,-1.82045 -0.25462,-2.7526l-0.99543,-0.99543c-0.95956,-1.37377 -2.78509,-2.44822 -2.87868,-4.12132c-0.0807,-1.44263 1.77718,-2.2975 2.44805,-3.57719c0.48942,-0.93358 0.44534,-2.10364 1,-3c0.9121,-1.47401 3.15116,-1.95568 3.78031,-3.57086c0.22576,-0.57957 -0.19912,-1.23065 -0.22836,-1.85195c-0.09403,-1.99779 0,-4 0,-6c0,-3.64228 -1.03315,-9.44355 0.12872,-12.86935c1.48819,-4.38797 5.83556,-6.61726 8.55125,-10.03261c2.83188,-3.56148 6.14389,-6.57971 9.05366,-10.06364c1.13119,-1.3544 1.95594,-2.96694 3.20472,-4.21376c3.5467,-3.54115 8.25493,-5.96279 12.55587,-8.41537c1.16128,-0.66221 5.69962,-4.00582 6.63643,-4.27655c0.75466,-0.21809 7.01486,-0.10484 8.3499,-0.08999c6.18601,1.98917 12.67823,4.62585 19,6c1.10421,0.24002 2.31553,-0.26353 3.38881,0.08999c1.25494,0.41335 2.1273,1.61331 3.34431,2.12773c4.78018,2.02058 10.68815,2.44575 15.67827,3.8792c3.54346,1.01788 6.96477,3.45263 10.61722,3.90786c1.75604,0.21887 3.56683,-0.21399 5.3079,0.10263c1.95833,0.35613 3.70395,1.54317 5.6635,1.89258c1.58012,0.28175 3.2179,-0.18294 4.81507,-0.02414c1.69133,0.16816 3.31367,0.78741 5,1c6.62699,0.83545 13.30527,0.87834 19.95183,1.99562c7.01196,-0.01246 14.14736,-0.42926 21.12055,0.34554c1.93281,0.21476 3.86629,0.42361 5.79791,0.64883c0.56313,0.06566 1.21377,0.53742 1.68605,0.22377c1.57077,-1.04318 2.28821,-3.20922 4,-4c1.56087,-0.72106 3.43408,-0.19135 5.15305,-0.22836c5.03948,-0.10848 9.47515,1.31902 14.36133,2.02245c2.88704,0.41562 5.83357,-0.02282 8.75037,-0.02377c2.13723,-0.0007 9.37125,0.0744 11.58428,-0.23325c3.72672,-0.51808 7.49002,-1.19596 10.989,-2.57943c1.96569,-0.77722 3.54011,-2.4011 5.54001,-3.08549c1.1894,-0.40703 2.51296,-0.08757 3.77,-0.1005c3.99979,-0.04114 8,0 12,0c6.33917,0.0038 13.0153,0.23606 19.29561,1.0146c4.3771,0.54261 4.4616,1.45474 8.40877,1c2.65356,-0.30571 5.12425,-1.58618 7.76796,-1.96783c5.70442,-0.82351 12.02338,-1.21317 17.78233,-0.95704c11.10661,0.49395 21.8919,3.1833 32.94401,3.91686c7.51546,0.49882 15.26482,-0.00659 22.80132,-0.00659c2.52679,0.02166 5.01659,-0.61372 7.51945,-0.96126c7.96794,-1.10642 16.84581,0.0846 24.72799,0.97148c2.3702,0.26669 4.79076,-0.28792 7.15544,0.02399c6.20606,0.8186 11.69635,3.56703 17.68127,5.12594c5.63947,1.46893 11.67918,2.13658 17.43212,3.02618c5.90482,0.91309 11.52146,0.81367 17.48372,0.81367c4.39157,0 8.30332,-0.35367 12.48055,1.03874c2.64902,-0.01108 5.26526,0.59754 7.886,0.98374c2.13372,0.31443 4.17951,-0.52836 6.32271,0.05778c3.72611,1.01903 7.89825,3.60502 11.45879,5.14811c1.11316,0.48243 2.40691,0.56632 3.42914,1.21969c2.34646,1.49975 3.31173,4.48077 4.85653,6.79782c0.56164,0.84241 1.60518,1.30408 2.11823,2.17694c1.06828,1.81748 0.89042,4.20744 2,6c0.49622,0.80166 1.53983,1.17712 2,2c0.70483,1.2604 1.13824,2.67822 1.40931,4.09665c1.38647,7.25496 -1.06334,14.64307 -3.57714,21.30153c-1.16072,0.83302 -2.36319,1.61073 -3.48215,2.49905c-0.96257,0.76416 -1.57821,2.09355 -2.75392,2.45161c-0.29274,0.08915 -0.59214,0.16205 -0.89593,0.2191c-0.04015,1.23906 -0.12292,2.37239 -0.25211,3.19172v2.45388c0.82917,2.51707 2.09071,7.30293 0.96126,9.84419c-0.06573,0.14788 -0.13554,0.29342 -0.20902,0.43687l0.0938,0.03127l-0.97812,2.93437c-0.0571,0.18566 -0.13173,0.36365 -0.22197,0.53202c-0.06057,2.11266 -0.01751,4.19341 0.3153,6.10438c0.52777,3.03038 1.51355,5.96508 2,9c0.47409,2.95778 0.03874,6.47754 0.03874,9.48055c0,5.24271 0,10.48541 0,15.72812c1.54745,-1.03342 3.16778,-2.11219 3.3359,-2.22427l2.6641,-0.50385c0,0 3,0 3,3c0,3 -3,3 -3,3l0.6641,-0.50385c-2.11799,1.412 -4.0163,2.83893 -5.83167,4.3556c0.99688,0.32036 2.03437,0.60896 2.60131,1.39411l-0.00006,-0.00002c0.84027,1.16368 0.23253,2.86889 0.52754,4.27358c0.89839,4.2778 1.03874,8.05122 1.03874,12.48055c0,0.72448 0.02175,6.31223 -0.08025,6.68926c-0.3893,1.43898 -1.33333,2.66667 -2,4c0.19545,5.62775 0.9324,12.23319 0.04152,17.79129c-0.16683,1.04081 -0.81914,1.96154 -1,3c-0.37287,2.14096 0.03874,4.34626 0.03874,6.51945c0,2.50652 -0.16277,5.01601 -0.03874,7.51945c0.0867,1.74984 1.47288,3.79641 0.47246,5.23468c-0.29222,0.42012 -1.23171,0.74074 -2.4325,1.0214c-0.00082,0.07575 -0.00124,0.15058 -0.00124,0.22448c0,7.66667 0,15.33333 0,23c0,3.97034 -0.69439,8.60492 -0.03874,12.51945c0.34825,2.07922 1.35464,3.99302 2,6c0.09261,8.32081 1.13955,17.60993 0.01626,25.8471c-0.22527,1.65195 -0.59622,3.30667 -1.23398,4.84711c-0.41431,1.00073 -1.50155,1.638 -1.87227,2.65569c-0.58554,1.60743 0.12872,3.41989 0.12872,5.13065c0,3.32507 0.3035,6.85155 0.1373,10.22157c0.63879,3.10609 0.82787,6.3095 1.82399,9.29786c0.00605,0.70032 0.09725,8.26077 0,8.96109c-0.14498,1.04407 -0.81914,1.96154 -1,3c-0.34315,1.97034 0.31653,4.02521 0,6c-0.16683,1.04081 -0.84624,1.95718 -1,3c-0.317,2.14995 0.03874,4.34626 0.03874,6.51945c0,6.66667 0,13.33333 0,20c0,1.0569 0,2.1138 0,3.17071c0.31278,-0.11055 0.64936,-0.17071 1,-0.17071c1.65685,0 3,1.34315 3,3v3c0,4.22058 1.07749,10.1799 -1.61588,13.82098c-0.84964,1.1486 -2.37761,1.59287 -3.48215,2.49905c-8.59378,7.05038 -18.9942,11.95703 -26.78065,19.80129c-7.6833,7.34054 -18.9949,3.97039 -24.55505,-4.36719c-2.90458,-4.3555 -2.37298,-9.21594 -5.06242,-13.09003c-1.9186,-2.76371 -2.96053,-6.05039 -5.40582,-8.34407c-0.48939,-0.45904 -0.84159,-1.19937 -1.49623,-1.34657c-1.52086,-0.34197 -2.64226,1.65564 -3.9377,2.5227c-2.4775,1.65823 -4.04453,3.04186 -5.93173,5.30598c-3.32797,4.97374 -3.23127,5.54446 -7.8304,9.5179c-0.83568,0.72199 -1.99844,1.02169 -2.78065,1.80129c-0.94253,0.9394 -1.25519,2.4391 -2.30034,3.2628c-0.97918,0.7717 -2.39191,0.74518 -3.50293,1.31083c-2.42584,1.23507 -4.94172,4.39779 -8.29166,3.14267c-1.82744,-0.68468 -2.69595,-2.85918 -3.72134,-4.51957c-0.39193,-0.63464 0.08287,-1.65171 -0.42637,-2.19673c-0.44027,-0.4712 -1.29953,-0.09815 -1.91055,-0.30436c-2.27434,-0.76756 -4.5678,-1.83195 -6.96813,-1.81696c-2.686,0.01678 -6.01108,0.16635 -8.42281,1.55195c-0.99385,0.571 -3.03158,4.08007 -3.25717,4.35001c-0.42483,0.50836 -1.32142,0.62367 -1.54839,1.24608c-0.34259,0.93948 0.3849,2.07704 0,3c-0.86584,2.07619 -2.82067,3.542 -3.85189,5.54121c0.05384,1.55032 0.25643,5.39409 -0.14811,6.45879c-0.41451,1.09093 -1.695,1.63211 -2.33791,2.60608c-1.64246,2.48822 -2.33557,5.52643 -4,8c-1.47533,2.19254 -5.86913,6.45227 -7.85653,7.79782c-0.87286,0.59096 -2.09297,0.46297 -3,1c-1.80714,1.06996 -3.14996,2.80317 -4.91309,3.9442c-1.25279,0.81076 -2.35019,2.00086 -3.79475,2.37513c-1.89437,0.49081 -3.91253,0.14819 -5.86935,0.12872c-1.38471,-0.01377 -2.8642,0.29061 -4.14805,-0.22836c-0.60879,-0.24609 -4.2133,-3.86429 -4.97327,-4.65032c-0.84126,-0.8701 -1.95039,-1.55953 -2.48928,-2.64322c-2.1636,-4.35097 -1.3894,-9.79543 -1.3894,-14.4781c0,-2.87589 0.53723,-6.65456 0.03874,-9.51945c-0.17427,-1.00153 -0.78997,-1.88938 -0.97966,-2.8881c-0.17474,-0.92005 0.32351,-1.97344 -0.10212,-2.80762c-0.79487,-1.55782 -2.31451,-2.62614 -3.37861,-4.01406c-0.25117,-0.3276 -2.18221,-3.66734 -3.15554,-4.21881c-3.28684,-1.86225 -9.96416,-3.62202 -13.73355,-2.63221c-1.44183,0.37861 -2.55554,1.63154 -4,2c-0.64444,0.16439 -1.30253,-0.69132 -1.93513,-0.48602c-0.33833,0.1098 0.18267,0.69196 0.20713,1.04682c0.05777,0.83793 0.03284,1.67956 0.03874,2.51945c0.02721,3.87712 0.01061,7.75644 -0.02248,11.63345c1.79367,7.00867 3.91987,15.22202 -0.42557,21.94374c-3.74168,5.78781 -9.38897,4.25723 -14.9185,3.40033c-1.24748,-0.19332 -2.60563,0.25335 -3.7815,-0.20588c-1.0217,-0.39902 -1.49251,-1.64889 -2.42914,-2.21969c-1.80023,-1.09709 -4.18052,-0.93514 -6,-2c-0.8137,-0.47622 -1.19155,-1.51493 -2,-2c-2.08085,-1.24851 -4.88438,-1.93646 -6.03341,-4.07386c-2.50126,-4.6528 -1.3894,-11.38251 -1.3894,-16.4781c0,-5.53489 0.98524,-12.08477 0.03874,-17.51945c-0.18086,-1.03846 -0.82788,-1.96005 -1,-3c-0.26731,-1.61513 0.21,-6.00458 -2.18679,-6.70891c-3.55263,-1.04398 -6.5018,1.96774 -9.18785,3.72451c-1.72603,1.12889 -3.0464,2.80281 -4.34407,4.40582c-0.47349,0.5849 -1.39072,0.81684 -1.675,1.51361c-0.60599,1.48527 -0.31236,3.22965 -0.87339,4.73248c-0.44179,1.18345 -1.50783,2.04212 -2.07669,3.17c-0.8896,1.76383 -1.2242,3.75653 -1.8489,5.63063c-2.61095,7.47135 1.89666,16.41345 -3.52602,22.95328c-0.91009,1.09758 -1.8446,2.34909 -3.17198,2.86967c-3.36765,1.32076 -8.21519,-0.67449 -11.2961,-2c-2.52549,-1.08655 -4.71209,-2.84487 -7.17,-4.07669c-1.02923,-0.51581 -2.27885,-0.53933 -3.25914,-1.14299c-1.53573,-0.94569 -2.88491,-3.08529 -4.32477,-4.23193c-2.34113,-1.86437 -5.16453,-3.13881 -7.27739,-5.25838c-2.79904,-2.80794 -4.5736,-6.9194 -5.7819,-10.5811c-0.03143,-2.8244 1.03852,-8.36968 -0.59069,-10.90335c-0.79858,-1.24191 -3.87918,-4.33352 -5.3174,-4.70592c-1.01109,-0.2618 -2.08645,0.1068 -3.13065,0.12872c-2.6956,0.0566 -5.86599,-0.48317 -8.51945,-0.03874c-2.07922,0.34825 -3.91815,1.66781 -6,2c-0.77032,0.12292 -1.61127,-0.48683 -2.3325,-0.18962c-0.76556,0.31548 -0.9272,1.47299 -1.66995,1.83896c-2.14352,1.05616 -4.8544,0.70767 -6.9009,1.94135c-3.3806,2.0379 -4.22667,5.58887 -8.45587,6.56937c-1.37714,5.94007 -8.1752,10.11379 -14.26937,7.65032c-0.50254,-0.20314 -5.01219,-4.5416 -5.4039,-5.19445c-0.43235,-0.72058 0.0125,-1.84957 -0.56937,-2.45587c-0.51648,-0.53817 -1.52268,-0.10695 -2.19673,-0.42637c-0.94465,-0.44766 -1.56837,-1.46783 -2.5513,-1.82367c-0.66902,-0.2422 -1.41936,0.11088 -2.13065,0.12872c-1.83928,0.04615 -3.70687,-0.35441 -5.51945,-0.03874c-1.03846,0.18086 -1.95919,0.83317 -3,1c-4.58414,0.73477 -11.05279,-0.01303 -15.05774,-2.40931c-2.2612,-1.35294 -4.4533,-4.33875 -6.32477,-6.23193c-3.21325,-2.14217 -6.24656,-4.38411 -7.84158,-8.10637c-1.58927,-3.70885 -1.25646,-7.33831 -1.25646,-11.21366c0,-6.6902 0.86463,-13.90155 0.03874,-20.51945c-0.40735,-3.26414 -5.48578,-8.03521 -8.89069,-6.70891c-0.52672,0.20517 -0.64775,0.93027 -1.02673,1.34968c-0.21945,0.24287 -4.11021,4.09057 -4.21935,4.19871c-0.83928,0.50032 -1.90646,0.73877 -2.51785,1.50095c-0.54029,0.67356 -0.30881,1.72189 -0.68917,2.49707c-1.72291,3.51132 -4.16919,5.9659 -4.71742,10.0485c-1.17988,8.78633 -0.01404,21.1483 -6.8562,27.75477c-0.95512,0.92221 -1.74236,2.15274 -2.97327,2.65032c-1.28385,0.51898 -2.76398,0.18414 -4.14805,0.22836c-3.03504,0.09696 -8.07021,0.64696 -10.86935,-0.12872c-1.30996,-0.36301 -2.25477,-1.52649 -3.4487,-2.17633c-1.33223,-0.72511 -3.24642,-0.69783 -4.11567,-1.94081c-1.37213,-1.96207 -0.56627,-8.27227 -0.56627,-10.75413c0,-0.61257 -0.01153,-8.13431 0.03874,-8.48055c0.49208,-3.38955 2.56012,-6.44013 2.98374,-9.886c0.2698,-2.19464 -0.02248,-4.42229 -0.02248,-6.63345c0,-1.13388 0.87466,-7.75145 -1.14805,-8.22836c-2.36249,-0.55702 -5.17145,0.82296 -7.3714,1.18962c-0.98639,0.1644 -2.01255,-0.15794 -3,0c-3.16344,0.50597 -6.62616,2.16574 -9.75294,2.94917c0,0 -1.94156,0.48539 -3.04954,-0.92253zM486.53624,106.11944c0.02011,0.12546 0.03858,0.25192 0.05552,0.37932c-0.01249,-0.31235 -0.01879,-0.61284 -0.01678,-0.89877c0.01311,-1.86747 -0.77551,-3.6612 -0.96126,-5.51945c-0.05985,-0.59875 0.914,-1.26518 0.52754,-1.72642c-0.0247,-0.02948 -0.05116,-0.0553 -0.07922,-0.07781c-0.13248,0.06791 -0.27656,0.1272 -0.43326,0.17583c-0.01382,1.53801 -0.35165,3.10301 -0.10093,4.61788c0.00286,0.01646 0.00565,0.03293 0.00839,0.04942c0.18086,1.03846 0.83317,1.95919 1,3zM486.65524,116.91073c0.65144,-2.14147 0.33385,-5.2843 0.09725,-8.07884c0.04043,2.26 -0.1775,4.64339 -0.1775,6.7681c0,0.5372 -0.01253,1.08743 -0.03114,1.64594c0.03982,-0.11066 0.07706,-0.22235 0.11139,-0.3352z"/></g></g></svg>