<svg version="1.1" xmlns="http://www.w3.org/2000/svg" xmlns:xlink="http://www.w3.org/1999/xlink" width="384.13332" height="320.63413" viewBox="0,0,384.13332,320.63413"><g transform="translate(-36.94303,-32.64734)"><g data-paper-data="{&quot;isPaintingLayer&quot;:true}" fill-rule="nonzero" stroke="none" stroke-width="0.5" stroke-linecap="butt" stroke-linejoin="miter" stroke-miterlimit="10" stroke-dasharray="" stroke-dashoffset="0" style="mix-blend-mode: normal"><path d="M269.10343,119.5748c0.05531,-0.03711 0.10779,-0.07099 0.15722,-0.10143c0.89751,-0.55279 2.09607,-0.45776 3,-1c0.8351,-0.50095 1.20419,-1.62845 2.08258,-2.04887c2.61958,-1.25381 8.97131,-2.22728 11.95621,-1.21723c2.27615,0.77022 3.73597,3.03469 5.73732,4.36462c3.71553,2.46904 7.30511,3.49894 8.93095,8.30365c0.14566,0.43044 0.10727,7.44949 0.10727,7.72446c0,2.58456 -0.27007,5.182 -0.01217,7.75366c0.42267,4.21463 1.67647,8.32373 0.97989,12.6468c-0.16769,1.04067 -0.82049,1.9613 -1,3c-0.31787,1.83928 0.22533,3.74301 0.03228,5.59954c-0.05547,0.53345 -0.80503,1.11791 -0.47189,1.53822c0.36539,0.46101 1.19043,-0.04712 1.76246,0.09007c2.92494,0.70148 4.37632,1.52841 6.7944,3.43835c3.56575,2.81644 6.58831,8.10187 11.13949,9.54063c0.95349,0.30142 2.05866,-0.33745 3,0c1.43628,0.51488 2.65764,1.5207 3.86051,2.45937c0.55857,0.43588 0.70772,1.37652 1.37174,1.62366c0.86503,0.32195 1.84517,-0.05535 2.76775,-0.08303c3.93917,2.65726 4.98609,2.14216 5.74326,6.99227c0.22417,1.43595 0.30915,2.98095 -0.15802,4.35716c-0.30306,0.89277 -1.63898,1.12905 -2,2c-0.31257,0.75407 0.2876,1.63781 0.15802,2.44375c-0.33466,2.08145 -1.65207,3.92072 -2,6c-0.48815,2.91725 0.96646,6.77091 -0.15802,9.55625c-0.48834,1.20962 -3.43689,3.44801 -4.37634,4.62826c-1.94659,2.44552 -3.7808,5.8924 -6.61903,7.54165c-2.02977,1.17947 -4.59823,0.95515 -6.91387,1.34109c-4.48747,0.74791 -7.25749,2.58154 -10.52708,-2.15339c-0.64495,-0.934 -0.74611,-2.14397 -1.11916,-3.21595c-0.39811,-0.68495 -0.51676,-1.64431 -1.19433,-2.05484c-0.94699,-0.57376 -2.1923,-0.34582 -3.25885,-0.64324c-1.23076,-0.3432 -2.51385,-0.62619 -3.61536,-1.27367c-0.70381,-0.41372 -0.89548,-1.48729 -1.64238,-1.81693c-1.53907,-0.67925 -3.36135,0.2245 -5.04329,0.1903c-1.59662,-0.03246 -2.88121,-0.61738 -4.01323,1.01748c-0.44685,0.64534 -0.38518,1.52256 -0.61506,2.27309c-0.57831,1.88815 -1.62946,3.65433 -1.90399,5.60989c-0.35217,2.50861 0.03228,5.06634 0.03228,7.59954c0,7.94615 1.319,17.22074 -1.12829,24.79057c-3.39281,9.60213 -15.04588,19.41675 -25.68604,13.33606c-1.94922,-1.11395 -3.54215,-2.76056 -5.27064,-4.19327c-0.54549,-0.45214 -0.70821,-1.37522 -1.37174,-1.62366c-0.98713,-0.36961 -2.29647,0.52892 -3.16133,-0.07363c-3.48657,-2.42914 -4.03756,-5.46299 -5.91007,-8.77429c-0.24279,-0.42935 -0.44922,-1.036 -0.9286,-1.15208c-0.98786,-0.23921 -2.02725,0.16285 -3.04329,0.1903c-4.11304,0.11113 -8.13133,-0.53815 -12.04329,0.8097c-8.9923,4.35715 -19.03327,4.1903 -28.95671,4.1903c-2.80101,0 -8.02907,0.77573 -10.72446,-0.10727c-2.53581,-0.83072 -8.49028,-4.83167 -9.58524,-7.43602c-1.12633,-2.67897 -0.2936,-8.87965 1.18307,-11.27104c2.09378,-3.39076 2.95612,-2.60501 6.16992,-3.99537c2.38409,-1.03141 4.70336,-2.23592 7.16614,-3.06201c3.72415,-1.23994 9.3727,-2.30355 11.66394,-5.94262c0.56163,-0.89201 0.45318,-2.09883 1,-3c1.28991,-2.12581 2.88603,-2.45278 1,-5.37134c-0.45247,-0.70019 -1.2957,-1.07069 -1.80673,-1.72936c-0.6037,-0.77811 -0.68357,-2.00082 -1.50677,-2.54143c-0.97456,-0.64001 -2.335,-0.29094 -3.42724,-0.69883c-2.6989,-1.00787 -4.92014,-3.18139 -7.70702,-3.91159c-1.01582,-0.26616 -2.15339,0.29028 -3.15008,-0.04039c-1.14071,-0.37845 -1.8452,-1.66702 -3,-2c-1.17761,-0.33956 -2.46301,0.25026 -3.676,0.07499c-2.08652,-0.30149 -3.91993,-1.65683 -6,-2c-1.0935,-0.18041 -2.27209,0.27397 -3.324,-0.07499c-2.09559,-0.69518 -3.81816,-2.29184 -5.91721,-2.97648c-2.49136,-0.49812 -6.04419,-0.99592 -8.45248,-2.1684c-1.05357,-0.51293 -1.84092,-1.49827 -2.91724,-1.96157c-1.33617,-0.57515 -2.93014,-0.43888 -4.22036,-1.11079c-1.03385,-0.5384 -1.70115,-1.59427 -2.53602,-2.40773c-3.04228,-2.96428 -6.38716,-6.84684 -8.42483,-10.56671c-1.37926,-2.51792 -1.71505,-5.51048 -3.03248,-8.0613c-0.55854,-1.08144 -1.48418,-1.94886 -2.02071,-3.04138c-1.99294,-4.05815 -2.2349,-8.68263 -2.2542,-13.09245c-0.00433,-0.98954 -0.04245,-6.40244 0.19029,-6.96263c0.83453,-2.00865 5.34473,-4.85525 6.67169,-5.93193c0.93511,-0.75873 1.56688,-1.96481 2.6813,-2.42106c1.12758,-0.46165 2.44686,0.01285 3.65125,-0.17157c1.35853,-0.20802 2.66667,-0.66667 4,-1c3.84153,-0.02177 9.29048,-0.91463 12.68833,1.39856c2.28676,1.55678 3.44845,4.33934 5.3849,6.31494c0.79414,0.81019 1.77517,1.48062 2.35886,2.45344c0.45036,0.7506 0.02218,1.9276 0.64114,2.54656c0.61896,0.61896 1.79212,0.19723 2.54656,0.64114c0.90696,0.53365 1.48488,1.49331 2.27064,2.19327c0.71381,0.63587 2.45031,2.68016 3.77102,1.04995c1.57141,-1.93967 0.97901,-5.95023 1.12002,-7.93901c0.55659,-7.84994 2.02418,-16.03139 1.03616,-23.93124c-0.2666,-2.13163 -1.47493,-6.82151 -1.99361,-8.94227c-0.01739,-3.09505 -0.10321,-6.20975 -0.01856,-9.30407c0.03611,-1.31993 -0.28923,-2.72643 0.1903,-3.95671c0.42893,-1.10045 1.65135,-1.69587 2.37634,-2.62826c4.54236,-5.84177 10.06224,-11.27019 16.83498,-14.66082c4.7574,-2.38169 10.35595,-2.71646 15.40075,-4.1549c3.93379,-1.12165 8.19153,-3.20448 12.42209,-1.99204c3.29696,0.94488 6.13288,4.71813 8.40217,7.0784c1.31603,3.84074 2.45591,9.76713 1.3065,13.88871c-1.06826,3.83056 -4.00522,8.88317 -6.49977,12.01059c-0.51984,0.65173 -1.37919,1.01367 -1.80673,1.72936c-0.58121,0.97293 -0.42856,2.32087 -1.13986,3.20316c-0.6781,0.84111 -2.09885,0.82562 -2.78258,1.66216c-0.30464,0.37273 0.15255,0.95149 0.26353,1.4199c0.35832,1.51227 1.89614,2.50574 3.11725,3.4671c0.63086,0.49666 0.92729,1.40148 1.64677,1.75786c3.5236,1.7453 8.21472,2.20257 11.90089,0.83079c4.11727,-1.53222 5.92409,-4.87516 10.03187,-6.35262c0.94213,-3.47812 3.42593,-6.52584 7.11104,-7.6954c3.29056,-1.04434 6.4498,0.9334 9.72446,0.89273h3c0,0 0.82602,0 1.52845,0.47481z" fill="#00ff40"/><path d="M164.07578,85.56644c0.01092,-0.29707 0.17037,-2.46645 2.4992,-2.46645c0.29256,0 0.55088,0.03424 0.77897,0.09469c0.01654,-0.64382 -0.35136,-1.34413 -0.24668,-1.99515c0.18853,-1.17257 0.72207,-2.26289 1.09601,-3.39011c1.46913,-4.42863 4.26395,-8.01788 6.08542,-12.22081c1.12494,-2.59573 0.82402,-5.70093 2.11079,-8.22036c1.4783,-2.89446 2.60495,-1.88151 4.14739,-4.23003c0.81834,-1.24601 1.16548,-2.76477 2,-4c2.34593,-3.47235 6.745,-6.77738 9.71378,-9.66485c1,-0.33333 2.09378,-0.4616 3,-1c0.92079,-0.54706 1.35506,-1.80624 2.35762,-2.18307c1.236,-0.46458 2.63628,-0.1903 3.95671,-0.1903c1.32043,0 2.76852,-0.38566 3.95671,0.1903c1.42232,0.68945 2.66354,1.93067 3.35299,3.35299c0.57596,1.18819 0.15873,2.63666 0.1903,3.95671c0.11137,4.65633 0.02278,9.34226 0,14c-0.00439,0.89745 -0.2896,3.53203 0.48677,4.48252c1.98194,2.42646 6.3764,2.01748 9.01323,2.01748c2.58562,0 5.13066,-0.64672 7.69454,-0.98127c0.7784,-0.10157 1.61747,0.45698 2.34875,0.17157c0.66002,-0.2576 0.81959,-1.17967 1.37174,-1.62366c2.08756,-1.67863 4.74566,-2.62868 7.35323,-3.24214c3.30244,-3.45445 7.26346,-5.25946 10.81802,-8.2289c0.82767,-0.69142 1.049,-1.9698 1.92259,-2.60221c0.76351,-0.55273 2.05749,-0.09403 2.72338,-0.76116c0.67313,-0.67437 0.18139,-2.00922 0.781,-2.74972c0.87522,-1.08087 2.32338,-1.53763 3.40179,-2.41587c2.13209,-1.73635 4.10188,-5.27123 6.62826,-6.37634c0.91618,-0.40077 2.07152,0.37139 3,0c0.87538,-0.35015 1.11512,-1.67463 2,-2c4.24843,-1.56216 10.19695,0.12301 14.35716,0.84198c2.29925,0.39736 4.69416,-0.35711 7,0c3.78195,0.58572 7.2012,3.45041 10.62765,5.00594c0.12154,1.72875 0.75556,3.49789 0.36462,5.18624c-0.87733,3.78897 -4.51983,4.69016 -6.2661,7.58987c-1.27668,2.11993 -0.73838,5.04835 -2.08309,7.12579c-0.66942,1.0342 -2.27832,1.12253 -3.05677,2.07736c-0.56557,0.69372 -0.34186,1.77975 -0.74098,2.58089c-0.47773,0.95894 -1.45945,1.62966 -1.85306,2.62608c-1.34576,3.40678 2.81384,4.96074 4.4234,6.5575c0.83709,0.83043 1.13615,2.09861 1.95163,2.95027c1.31049,1.36864 3.20017,1.87538 4.9312,2.36747c6.99887,1.98961 11.7452,0.4278 17.71606,-3.53305c1.7078,-1.64961 3.85276,-3.08637 6.18452,-3.53436c0.87632,-0.16837 1.82995,0.35871 2.676,0.07499c2.22235,-0.74527 4.01577,-2.66715 6.324,-3.07499c4.13811,-0.73116 9.1753,-0.13333 13.40046,-0.03228c1.65298,0.03953 3.38398,-0.32002 4.95671,0.1903c1.01875,0.33057 1.44237,1.62679 2.35762,2.18307c1.80153,1.09496 4.2054,0.89372 6,2c2.58473,1.59336 2.83019,3.29321 4.61903,5.54165c2.62438,3.29866 5.7666,7.83924 6.53436,12.18452c0.15286,0.86514 -0.05429,6.40608 -0.07499,7.12492c-1.62498,2.57202 -2.5533,5.60761 -4.51853,7.93005c-0.91469,1.08095 -2.3152,1.63131 -3.48744,2.42562c-2.9875,2.02433 -6.36014,3.76565 -9.98629,4.38759c-2.24975,0.38587 -3.12533,-0.58258 -5.08613,0.65891c-1.82975,1.15851 -3.00186,3.12323 -4.54656,4.64114c-0.80919,0.79516 -1.48062,1.77517 -2.45344,2.35886c-0.7506,0.45036 -1.9276,0.02218 -2.54656,0.64114c-0.61896,0.61896 -0.19723,1.79212 -0.64114,2.54656c-0.53365,0.90696 -1.53033,1.45341 -2.19327,2.27064c-1.71175,2.11014 -4.53326,7.57403 -3.62366,10.45832c0.17088,0.54185 0.87847,0.72102 1.32831,1.06807c2.02247,1.56036 4.26149,2.92914 6.67632,3.76201c2.65284,2.93478 4.3126,0.8927 8,3c1.61051,0.92038 2.49588,3.15128 4.41013,3.7339c0.85368,0.25983 1.79527,-0.21852 2.676,-0.07499c1.04037,0.16955 1.96198,0.81666 3,1c1.1685,0.20639 2.48722,-0.35691 3.55625,0.15802c1.27411,0.61371 1.70128,2.44024 3,3c1.15363,0.49723 2.56022,-0.42937 3.76775,-0.08303c1.25089,0.35878 2.09103,1.59334 3.28692,2.10644c2.25914,0.96929 4.89129,0.93501 7.08699,2.0405c2.03143,1.02278 3.46913,2.95891 5.3634,4.21768c1.24158,0.82505 2.76477,1.16548 4,2c2.30162,1.55498 3.69921,4.47823 6,6c1.31049,0.86678 2.99029,1.14256 4.19273,2.15391c1.02078,0.85856 1.51923,2.19282 2.27885,3.28922c1.24281,1.31245 3.41642,1.42844 4.70465,2.69634c1.13757,1.11961 1.2163,3.00636 2.23619,4.23413c1.38292,1.6648 3.69518,2.38918 5.05916,4.06953c1.89875,2.33917 3.76722,4.73527 5.24606,7.36016c0.79904,1.41828 0.98919,3.12767 1.79683,4.54107c1.18876,2.08038 3.05593,3.92714 3.49148,6.28329c0.0396,0.2142 0.0342,5.95997 0.03228,6.40046c-0.0266,6.09782 -1.40396,8.68161 -5.73223,12.76777c-0.91862,0.86723 -1.61932,2.12275 -2.81106,2.54193c-1.55978,0.54864 -3.30363,0.15518 -4.95671,0.1903c-3.57179,0.07589 -7.15449,-0.00445 -10.72446,-0.10727c-3.74902,-2.38835 -7.3923,-5.29317 -10.20889,-8.80776c-2.60756,-3.25375 -4.03071,-8.07433 -8.64103,-9.15185c-4.1204,-0.96302 -10.08298,-0.00044 -12.33851,3.94311c-0.87168,1.52403 -1.03709,3.40991 -2.02122,4.86387c-0.52095,0.76966 -1.6748,0.87811 -2.31885,1.54816c-3.81655,3.97061 -6.29088,11.13434 -6.26577,16.5172c-1.11004,4.44017 -0.98127,8.10684 -0.98127,12.69454c0,2.14199 -0.68388,4.37442 -0.06688,6.42562c0.40048,1.33136 1.42086,2.40621 1.91159,3.70702c1.45943,3.86856 2.80818,8.41747 6.88703,10.69187c1.13042,0.63033 2.59537,0.36705 3.77964,0.88921c1.45614,0.64203 5.66729,3.61222 6.29831,5.32958c0.57027,1.552 0.1903,3.30326 0.1903,4.95671c0,1.32043 0.30401,2.7323 -0.1903,3.95671c-1.45069,3.59337 -6.04045,5.19975 -8.84792,7.0714c-0.78446,0.52298 -1.21433,1.47884 -2,2c-0.80494,0.53394 -8.10017,4.02436 -8.88739,4.40502c-2.08655,0.02274 -4.11388,0.70235 -6.17393,1.0346c-3.25455,0.5249 -8.80369,0.83415 -11.97484,-0.0346c-1.53479,-0.42046 -2.8036,-1.52798 -4.29298,-2.08841c-1.4096,-0.53041 -3.02726,-0.47609 -4.36438,-1.16921c-0.33104,-0.1716 -4.67493,-4.50407 -4.89488,-4.86117c-0.55279,-0.89751 -0.4616,-2.09378 -1,-3c-0.54706,-0.92079 -1.8525,-1.33887 -2.18307,-2.35762c-1.69716,-5.23035 0.89966,-11.70045 0,-17c-0.18555,-1.09302 -2.19736,-0.67772 -3.28985,-0.48899c-2.55759,0.44182 -3.72196,2.38849 -5.4671,4.11725c-1.21976,1.84407 -2.68787,3.54134 -3.68757,5.51341c-0.88734,1.75042 -1.47821,5.96926 -1.78697,7.35163c-0.91751,4.10782 -1.70167,8.90311 -0.9911,13.14953c0.49962,2.98578 2.2449,6.57788 3.69456,9.14564c0.68433,1.21214 1.80353,2.20547 2.23045,3.53036c0.13606,0.42224 0.10727,5.94606 0.10727,6.72446c0,4.0089 0.57862,8.30658 -1.24266,12.07443c-0.76457,1.58174 -2.20039,2.74961 -3.13072,4.2399c-2.61391,4.18724 -4.22801,8.30446 -7.23799,12.32368c-6.13923,5.99206 -13.28854,7.81397 -21.64229,8.84983c-4.73524,0.58717 -4.85888,1.6476 -9.64095,0.98083c-3.67748,-0.51276 -8.73756,-3.12191 -11.37316,-5.70089c-0.85901,-0.84056 -1.15271,-2.14763 -2,-3c-0.92296,-0.9285 -2.44151,-1.19697 -3.219,-2.25028c-0.86612,-1.17339 -1.19315,-2.68728 -1.48095,-4.11703c-0.86533,-4.29879 -0.07392,-9.68547 2.21515,-13.38445c1.52419,-2.46298 4.3826,-3.79125 6.4848,-5.78377c1.72509,-1.63509 1.74703,-3.33023 2.2865,-5.53769c-0.00051,-0.10053 -0.03764,-6.19333 -0.01873,-6.69454c0.02579,-0.68356 0.46975,-1.41893 0.1903,-2.04329c-0.38516,-0.86055 -1.65243,-1.12359 -2,-2c-0.3415,-0.86111 0.57127,-1.97631 0.10551,-2.77706c-0.47929,-0.82402 -1.83393,-0.69535 -2.51385,-1.36351c-1.30561,-1.28303 -2.25672,-2.88417 -3.32281,-4.3722c-1.0397,-1.4512 -1.69886,-3.4885 -3.68361,-4.0512c-0.8282,-0.23481 -1.7283,0.20664 -2.581,0.08854c-2.23403,-0.30941 -4.4392,-0.98869 -6.69454,-0.98127c-2.40351,0.00791 -4.92925,-0.88835 -7.20943,-0.12829c-1.33176,0.44392 -2.17355,1.77805 -3.29057,2.62829c-1.17397,0.8936 -2.62718,1.47595 -3.58062,2.60187c-0.92591,1.09341 -1.0956,2.66837 -1.89127,3.85991c-1.38084,2.06784 -3.59236,3.53259 -4.81366,5.69849c-1.11596,1.97909 -1.80053,4.19836 -3.05217,6.09455c-1.14635,2.29068 -1.61478,4.92821 -3.03565,7.05951c-0.71414,1.07121 -2.31428,1.45713 -2.81693,2.64238c-0.52057,1.22751 0.52941,2.77628 0,4c-0.61234,1.41543 -2.33539,2.06927 -3.18307,3.35762c-0.57939,0.88058 -0.44079,2.10647 -1,3c-1.75964,2.81164 -3.96065,3.06246 -6.31049,5.40371c-0.9436,0.94015 -1.25289,2.44371 -2.29865,3.26873c-0.96901,0.76447 -2.36627,0.7378 -3.47284,1.28452c-1.57062,0.77598 -2.88072,2.07161 -4.52783,2.66829c-3.37412,1.2223 -4.87868,0.12271 -8.21135,0.54169c-1.36363,0.17144 -2.6388,0.81018 -4,1c-4.24858,0.59246 -9.02379,0.01873 -13.30546,0.01873c-3.71562,0 -8.99345,0.83765 -12.57438,-0.06688c-1.68127,-0.42468 -3.12029,-1.5139 -4.68043,-2.27085c-0.82321,-0.58985 -1.49353,-1.49972 -2.46964,-1.76955c-1.36002,-0.37594 -2.90085,0.38426 -4.23225,-0.08303c-1.06572,-0.37404 -1.56153,-1.66078 -2.50507,-2.28159c-2.52832,-1.66354 -5.09052,-3.278 -7.69849,-4.81366c-1.14161,-0.67222 -2.83012,-0.49458 -3.67404,-1.51582c-1.04193,-1.26086 -0.78194,-3.19512 -1.45198,-4.68724c-0.49233,-1.09638 -1.53969,-1.88979 -2,-3c-1.61648,-3.89876 -1.20431,-5.84256 -1.21371,-10.01138c-0.00401,-1.77812 -0.07875,-7.57584 0.47189,-8.46178c0.78675,-1.2658 2.72628,-1.20614 4.0714,-1.84792c2.64855,-1.26367 6.26036,-3.36595 9.08611,-3.99406c6.44309,-1.43218 13.48033,1.18454 19.77222,-0.94203c4.52846,-3.06235 11.97374,-7.83598 9.78868,-14.7975c-0.24449,-0.77894 -1.39836,-0.94144 -1.81693,-1.64238c-0.47556,-0.79638 -0.10801,-2.01855 -0.76201,-2.67632c-0.86381,-0.86881 -2.29152,-0.88744 -3.36618,-1.47573c-0.97493,-0.5337 -1.73402,-1.44042 -2.75657,-1.87599c-1.28535,-0.54752 -2.81328,-0.40446 -4.06305,-1.02894c-1.4909,-0.74497 -2.51053,-2.25217 -4,-3c-1.16214,-0.58348 -2.57484,-0.45736 -3.79294,-0.91263c-1.39637,-0.5219 -2.60437,-1.47614 -4,-2c-4.16007,-1.5615 -9.24673,-2.12454 -13.22008,-4.09361c-1.40101,-0.6943 -2.26898,-2.25639 -3.70312,-2.87939c-0.85131,-0.36982 -1.89153,0.31699 -2.78381,0.06141c-2.96413,-0.84901 -5.67906,-2.45974 -8.65736,-3.25762c-1.07668,-1.04913 -2.00234,-2.27982 -3.23003,-3.14739c-3.51689,-2.48529 -8.06358,-2.75686 -11.69849,-4.81366c-1.45055,-0.82078 -2.55329,-2.17247 -4,-3c-3.28584,-1.87953 -7.20448,-3.13629 -10.62389,-4.84736c-4.90467,-2.45429 -9.26539,-5.71038 -13.94966,-8.44488c-2.80875,-1.63964 -5.12461,-4.1033 -8.06798,-5.4868c-1.39773,-0.65698 -3.11778,-0.50079 -4.45467,-1.2741c-1.33786,-0.77386 -2.13694,-2.24362 -3.3285,-3.22796c-4.93835,-4.07956 -9.50332,-6.36248 -11.66082,-12.83498c-0.71565,-1.12464 -1.76824,-2.09582 -2.14694,-3.37392c-0.82866,-2.79667 0.6224,-8.95311 2.40596,-11.24194c1.74245,-2.23608 5.15759,-3.69771 7.05341,-6.06749c1.57501,-1.96877 3.36191,-3.79576 5.34838,-5.34838c0.93057,-0.72733 1.52781,-1.94742 2.62826,-2.37634c1.23028,-0.47953 2.63634,-0.17767 3.95671,-0.1903c1.57515,-0.01507 3.20477,-0.30731 4.72446,0.10727c1.15948,0.31631 1.86875,1.59414 3,2c0.71475,0.25643 1.51618,-0.10727 2.27554,-0.10727c1.97869,0 6.64755,0.49061 7.6903,-2.45671c0.56111,-1.58596 -0.1903,-3.361 -0.1903,-5.04329c0,-2.66667 0,-5.33333 0,-8c0,-1.02777 -0.14024,-7.68541 0.47189,-8.46178c2.73221,-3.46525 10.31288,-2.15795 14.02811,-2.03822c1.72846,0.0557 3.66227,-0.5338 5.17964,0.29581c1.54315,0.84371 2.42841,2.63476 3.13005,4.24748c1.62397,3.73268 1.90467,10.31442 1.15825,14.35577c-0.25056,1.35661 -0.65973,2.71585 -1.34132,3.91526c-0.40336,0.7098 -1.48729,0.89548 -1.81693,1.64238c-0.27619,0.62581 0.1903,1.35925 0.1903,2.04329c0,0.68404 -0.45504,1.41255 -0.1903,2.04329c0.2742,0.6533 1.1726,0.82535 1.62366,1.37174c1.97958,2.39797 5.09887,7.51549 8.8349,5.40947c1.27243,-0.71728 2.38077,-3.58344 2.79862,-4.39888c-0.06238,-2.26243 0.63771,-5.73153 0,-7.85124c-0.42946,-1.42751 -1.60757,-2.56187 -2,-4c-0.31371,-1.14964 -0.05476,-2.38277 -0.06688,-3.57438c-0.05763,-5.66534 0,-11.33442 0,-17c0,-4.39006 0.05921,-8.62427 -1.6755,-12.76825c-0.63415,-1.51489 -2.84856,-1.43887 -3.92288,-1.98596c-1.24272,-0.63285 -2.39222,-1.44803 -3.48659,-2.31243c-5.43117,-4.28986 -9.53727,-9.2495 -13.62948,-14.77309c-1.37962,-4.06721 -4.46815,-7.43195 -5.24356,-11.70398c-0.19564,-1.07787 0.75573,-2.3029 0.25382,-3.27664c-0.50853,-0.9866 -2.25298,-0.7971 -2.83935,-1.73952c-2.88498,-4.63679 -1.51803,-13.23632 -1.45646,-18.44012c0.01841,-1.55596 -0.35595,-3.17675 0.09071,-4.66733c0.51292,-1.71171 1.97254,-2.99953 2.69628,-4.63331c0.6332,-1.4294 1.84613,-7.59637 3.25124,-8.72746c1.01485,-0.81694 2.64123,-0.02504 3.88739,-0.40502c1.4259,-0.43478 2.54285,-1.68544 4,-2c3.41229,-0.73663 8.97083,-0.11692 12.57438,-0.06688c1.24188,0.01725 2.55282,-0.30484 3.72446,0.10727c1.51585,0.53318 2.69554,1.74998 4.04331,2.62496c2.49529,3.64876 5.52937,6.75026 6.64848,11.1261c1.05248,4.11533 0.72507,7.89377 1.95546,11.8511c0.23305,0.74955 0.10871,1.67329 0.61506,2.27309c0.70649,0.83688 2.00657,0.97528 2.781,1.74972c0.77443,0.77443 0.92145,2.06443 1.74972,2.781c1.78953,1.54822 4.62313,1.01213 6.93253,1.52795c3.51775,0.78571 6.02368,1.67921 9.5386,0.17253c1.85882,-0.79678 2.96573,-2.79508 4.69706,-3.84034c0.97169,-0.58664 2.19665,-0.61982 3.21595,-1.11916c1.74466,-0.85468 2.99468,-2.47604 4.51341,-3.68757c0.71102,-0.5672 4.82818,-3.1971 5.81721,-3.83441c1.58412,-2.43281 3.2929,-4.27187 5.26857,-6.26579z" fill="#00ff40"/></g></g></svg>