<svg version="1.1" xmlns="http://www.w3.org/2000/svg" xmlns:xlink="http://www.w3.org/1999/xlink" width="42.04601" height="36.11913" viewBox="0,0,42.04601,36.11913"><g transform="translate(-221.56066,-166.59999)"><g data-paper-data="{&quot;isPaintingLayer&quot;:true}" fill="#00ff40" fill-rule="nonzero" stroke="none" stroke-width="0.5" stroke-linecap="butt" stroke-linejoin="miter" stroke-miterlimit="10" stroke-dasharray="" stroke-dashoffset="0" style="mix-blend-mode: normal"><path d="M239.04803,167.53981c0.72475,-0.93982 2.02695,-0.93982 2.02695,-0.93982l1.79057,0.12829c4.78093,1.65598 11.54923,-0.89195 15.72691,2.38494c2.13245,1.67265 3.14853,4.72075 3.85422,7.1962c0.41052,1.44001 1.48923,2.92999 1.06141,4.36495c-0.48597,1.63002 -1.98832,2.91149 -3.47641,3.73532c-1.03812,0.57471 -2.38191,-0.01201 -3.55625,0.15802c-1.60825,0.23285 -2.68099,1.84265 -4.08613,2.65891c-0.7569,0.43969 -1.86263,0.09482 -2.54656,0.64114c-1.29463,1.03413 0.14418,3.38319 -0.37504,4.95669c-0.40778,1.23578 -1.57614,2.09855 -2.10644,3.28692c-0.66655,1.49369 -0.35003,3.47848 -1.45198,4.68724c-1.57323,1.72572 -6.68922,2.35829 -8.79101,1.61107c-1.0642,-0.37834 -1.67004,-1.52106 -2.50507,-2.28159c-4.30285,-2.15142 -8.62775,-4.05684 -6.84792,-9.98481c0.30799,-1.0258 1.60601,-1.45533 2.18307,-2.35762c0.3929,-0.61434 0.35105,-1.42506 0.65891,-2.08613c0.15298,-0.32849 0.95618,-0.57555 0.69995,-0.83178c-0.25623,-0.25623 -0.50054,0.553 -0.83178,0.69995c-0.96353,0.42746 -1.94662,0.96131 -3,1c-1.7373,0.06382 -3.89307,0.48168 -5.16822,-0.69995c-0.87162,-0.8077 -0.73995,-6.2375 -0.73223,-7.76777c0.01288,-2.55387 -0.30863,-5.29942 1.51323,-7.51748c3.46686,-4.22081 10.58783,-3.31246 15.95982,-3.0427z"/></g></g></svg>