<svg version="1.1" xmlns="http://www.w3.org/2000/svg" xmlns:xlink="http://www.w3.org/1999/xlink" width="556.56821" height="430.26448" viewBox="0,0,556.56821,430.26448"><g transform="translate(36.42502,32.07086)"><g data-paper-data="{&quot;isPaintingLayer&quot;:true}" fill="#00ff40" fill-rule="nonzero" stroke="none" stroke-width="0.5" stroke-linecap="butt" stroke-linejoin="miter" stroke-miterlimit="10" stroke-dasharray="" stroke-dashoffset="0" style="mix-blend-mode: normal"><path d="M-12.42502,53.59999v-4l0.39063,-3.90625l0.02641,-0.08302l0.00119,-0.08711l0.86469,-3.82932l0.69638,-2.08915l0.0207,-0.0828v-4.92236l0.24512,-2.45122l0.24036,-2.45169l1,-5l0.51452,-1.68076v-6.41634l0.02525,-0.25246l-1.3557,-3.25369l0.54582,-2.69701l-0.21537,-0.79685l1.49939,-5.54774l1.13993,-5.6326l0.54899,-0.61641l0.71794,-2.65637l7.13919,-6.16566l1.55137,-1.74189l7.08381,-1.79906l1.41313,-0.44963l0.58936,-0.05894l1.91935,-0.48745l1.15049,0.18047l0.24705,-0.0247l5.06861,0l0.23576,-0.13544l1.85096,0.13544h2.84467l3.90625,0.39063l0.4218,0.13421l2.30108,0.16837l2.83227,1.46497l3.0386,0.96683l1.74617,1.50805l0.39315,0.20336l2.09614,1.71503l0.7525,0.33733l1.5013,1.09417l1.65006,0.85348l1.42529,1.16615l0.84108,0.28036l1.61784,0.72524l1.65681,0.63116l0.72136,0.36068l9.44553,0l2.5764,-0.58177l0.08711,-0.00119l0.08302,-0.02641l3.90625,-0.39062l10.92236,0l1.01425,-0.25356l1.92359,-0.2815l0.23355,-0.07431l0.86604,-0.0866l0.86118,-0.12603l0.2446,0.01545l1.93443,-0.19344h0.92236l1.01425,-0.25356l1.49216,-0.21836l1.47037,-0.33502l8,-1l1.55405,-0.03837l1.54681,-0.15468h16l1.54681,0.15468l1.55405,0.03837l4.60545,0.57568c2.27738,-0.82117 4.73326,-1.26873 7.29368,-1.26873c3.90557,0 7.56792,1.04137 10.72451,2.8616c0.18234,-0.37039 0.35332,-0.74604 0.50772,-1.12938c3.43811,-1.38486 6.64812,-4.51271 10.04331,-5.62496c1.18028,-0.38666 2.48262,-0.08746 3.72446,-0.10727c3.33051,-0.05313 6.6693,0 10,0c2.01667,0 4.03335,0 6.05002,0l0.71127,-0.19224l1.05836,-0.66844l16,-8l1.92721,-0.73417l1.90099,-0.79962l12.72219,-3.91452l8.72426,-2.90809l3.82932,-0.86469l0.08711,-0.00119l0.08302,-0.02641l3.90625,-0.39062h7l3.90625,0.39063l0.08302,0.02641l0.08711,0.00119l3.82932,0.86469l6,2l0.83461,0.37413l0.87508,0.26603l10.44934,4.35389l13.37684,3.56716l0.89134,0.33578l0.92586,0.22364l2.92389,1.02336c0.32733,-0.41513 0.67405,-0.81559 1.0496,-1.19466c0.90314,-0.91159 2.1941,-1.34757 3.18279,-2.16559c1.19791,-0.99112 2.00177,-2.47348 3.35323,-3.24214c2.6063,-1.48238 5.95494,-1.29532 8.548,-2.80074c0.91846,-0.53322 1.42858,-1.62848 2.35762,-2.14305c1.71358,-0.94911 3.5494,-1.73296 5.45553,-2.18447c1.43771,-0.34055 2.96983,0.07041 4.42971,-0.15706c1.05488,-0.16437 1.98309,-0.85923 3.04043,-1.0069c0.30118,-0.04206 7.87166,-0.03228 8.40046,-0.03228c6.11812,0 12.80479,-0.81461 18.7075,1.11359c1.46603,0.4789 2.7099,1.49558 4.15318,2.03923c1.41164,0.53173 3.06573,0.41568 4.37107,1.17168c1.41652,0.82038 2.35735,2.27182 3.53602,3.40773c2.55741,2.55741 5.01523,5.55252 7.81721,7.83441c1.07841,0.87825 2.56917,1.30186 3.40179,2.41587c1.95134,2.61079 2.00014,8.28122 1.54221,11.51748h1.471l1.93443,0.19344l0.2446,-0.01545l0.86118,0.12603l0.86604,0.0866l0.23355,0.07431l1.92359,0.2815l1.01425,0.25356l0.7155,0l29.759,-2.8799l19.96026,-1.99603h1.24689l1.2407,-0.12407l2.52451,0l2.57258,-0.51452l2.45169,-0.24036l2.45122,-0.24512h16l3.90625,0.39063l0.08302,0.02641l0.08711,0.00119l2.5764,0.58177h2.34723l3.90625,0.39063l0.4218,0.13421l2.30108,0.16837l2.52647,1.3068h4.8444l0.24705,0.0247l1.15049,-0.18047l1.91935,0.48745l0.58936,0.05894l1.41313,0.44963l7.08381,1.79906l1.55137,1.74189l7.13919,6.16566l0.71794,2.65637l0.54899,0.61641l1.13993,5.6326l1.49939,5.54774l-0.21537,0.79685l0.54582,2.69701l-2.78074,6.67377l0.972,1.215l0.68843,1.06215l0.05421,0.05572l0.68987,1.0923l0.70267,1.08412l0.02787,0.07257l0.6759,1.07017l0.10071,0.20143l0.41361,0.47891l0.30476,0.95783l0.18092,0.36183l1.39754,3.66855l0.28789,1.83527l0.56327,1.77027l0.37768,3.77685l0.2665,1.06601l0.2815,1.92359l0.07431,0.23355l0.0866,0.86604l0.12603,0.86118l-0.01545,0.2446l0.19344,1.93443v16l-0.27265,2.72649l0.00828,0.27827l-0.08093,0.44825l-0.04532,0.45324l-0.08441,0.26529l-0.48687,2.69649l-1.0381,3.63335v3.49863l-0.03637,0.36368l0.17122,1.36976l-0.47257,1.64371l-0.05291,0.5291l-1.0288,3.23337l-0.93754,3.26101l-0.23391,0.4403l-0.69204,3.06477l-0.37971,1.13913l-0.62974,3.77845l-0.95889,6.71226l-0.44695,1.81409l-0.35613,1.83408l-1.94566,6.48552v3.33078l-0.27265,2.72649l0.00828,0.27827l-0.08093,0.44825l-0.04532,0.45324l-0.08441,0.26529l-0.00893,0.04947l5.98397,1.90399l0.42702,0.36879l1.52611,0.41246l3.07736,3.56326l3.56326,3.07736l0.41246,1.52611l0.36879,0.42702l2.73438,8.59375l0.39063,3.90625v15.98913l0.15576,0.61332l-0.15576,0.993v0.40454l-0.39062,3.90625l-0.56327,1.77027l-0.28789,1.83527l-1.06694,2.80071l-0.12493,0.49973l-0.81761,5.7233l-0.53711,2.18005l-0.49454,2.19011l-2.28714,6.86143l-0.6812,4.76841l-0.0698,0.2833l-0.01909,0.29114l-0.55882,3.3529l0.03382,0.27057l-0.18776,0.65309l-0.28724,1.72345l-1.02749,3.78888l-0.6159,1.20294l-0.37341,1.29883l-0.47613,0.89625l-0.12079,0.37964l-0.28789,1.83527l-1.39754,3.66855l-0.18092,0.36183l-0.30476,0.95783l-0.41361,0.47891l-0.30615,0.6123l-0.43816,1.31448l-0.72524,1.61784l-0.63116,1.65681l-1.41318,2.82636l-0.9475,2.52666v0.46664l-0.39062,3.90625l-0.24977,0.78498l-0.05963,0.8216l-1.08806,3.77194l-1.00678,2.51695l0.04842,0.1349l1,4l0.08637,0.59016l0.17459,0.57032l0.44937,2.24684l0.36797,1.02505l0.42637,1.11922l0.01909,0.12171l0.47625,1.32669l1.33441,5.33763l3.87342,7.74684l0.41361,0.47891l0.30476,0.95783l0.18092,0.36183l1.39754,3.66855l0.28789,1.83527l0.56327,1.77027l0.39063,3.90625v0.40454l0.15576,0.993l-0.15576,0.61332v9.43752l0.18885,1.08754l-0.41988,1.77434l-0.1596,1.59598l-0.85096,2.67445l-0.6463,2.73114l-0.68427,1.45065l-0.55284,1.73751l-0.72148,0.8354l-2.22222,3.7037l-0.77606,1.55212l-0.43816,1.31448l-0.72524,1.61784l-0.17373,0.45603l0.91532,-0.11441l1.64371,0.47257l0.5291,0.05291l3.23337,1.0288l3.26101,0.93754l0.46958,0.24947l1.62979,0.51857l1.04473,0.90227l0.32277,0.17147l1.16742,0.77828l0.46508,0.14798l0.82283,0.71063l0.54467,0.36312l3.03352,2.49182l0.60907,0.76134l3.58366,3.09498l0.56514,2.09102l0.8758,1.09476l3.03352,10.94233l-2.45925,7.32185l-2.01521,7.45629l-8.59375,7.42188l-1.33597,0.42508l-1.63012,1.42635l-4.69857,0.58732l-0.92909,0.29562l-3.90625,0.39063h-0.65462l-1.07882,0.13485l-0.46905,-0.13485l-2.66348,0l-9.23266,0.83933l-6.36583,0.9094l-0.64216,0.02713l-1.49583,0.37989l-1.59048,-0.24949l-0.19377,0.00819l-3.55949,-0.59693l-3.5656,-0.55931l-0.18123,-0.06904l-1.58775,-0.26627l-1.29894,-0.83342l-0.60063,-0.22881l-2,-1l-3.31916,-2.09631l-0.06244,-0.06075l-0.07738,-0.04002l-0.64955,-0.53145l-5.17864,-1.47961l-3.59589,-0.89897l-1.33926,-0.48076l-1.37544,-0.36457l-3.75528,-1.40823h-19.96451l-1.99033,0.75822l-6.95224,1.09055l-0.55955,0.15123l-0.14857,-0.04015l-1.24898,0.19592l-11.00565,-2.79508l-0.33004,-0.37057c-2.28105,2.54486 -4.85536,4.8153 -7.62874,6.89849c-1.10789,1.07933 -2.03739,2.37901 -3.32368,3.23799c-0.92486,0.61762 -2.18776,0.53728 -3.15406,1.08782c-1.49233,0.85024 -2.56997,2.37106 -4.13984,3.06782c-1.64605,0.73057 -3.54053,0.67327 -5.28621,1.11577c-2.30139,0.58337 -4.6859,1.39383 -7.03967,1.08323c-2.43727,-0.32162 -4.66884,-1.61671 -7.095,-2.01355c-2.26161,-0.36993 -4.75022,-0.15178 -6.75981,-1.25327c-1.46152,-0.80108 -2.57111,-2.14207 -4,-3c-1.62694,-0.97685 -3.88447,-0.09894 -5.6303,-0.84274c-1.414,-0.60243 -2.7159,-1.42522 -3.96046,-2.34327l-2.60968,2.13519l-0.39315,0.20336l-1.74617,1.50805l-3.0386,0.96683l-2.83227,1.46497l-2.30108,0.16837l-0.4218,0.13421l-3.90625,0.39063h-2.84467l-1.85096,0.13544l-0.43206,-0.24821l-2.77856,-0.27786l-0.08302,-0.02641l-0.08711,-0.00119l-3.82932,-0.86469l-6,-2l-1.46417,-0.65635l-1.89748,-0.52604l-3.6899,-2.95192l-1.25403,-0.91395c-0.17426,0.20925 -0.37248,0.39268 -0.60906,0.53533c-0.92051,0.55502 -2.25557,-0.36309 -3.22294,0.10551c-1.04037,0.50397 -1.45086,1.81525 -2.3187,2.57894c-2.1258,1.87068 -4.92628,2.91661 -6.91997,4.9275c-1.17344,1.18356 -1.78893,2.85498 -3,4c-1.23923,1.17165 -2.95291,1.74199 -4.24746,2.8522c-1.34584,1.1542 -2.14727,2.91046 -3.62113,3.89595c-1.26126,0.84333 -3.08149,0.54866 -4.32536,1.41742c-0.98747,0.68968 -1.04697,2.27714 -2.0066,3.00506c-2.87925,2.18403 -9.31902,3.00922 -12.64689,4.31699c-2.4886,0.10095 -5.01539,-0.25733 -7.47014,0.16396c-1.0389,0.1783 -1.95936,0.83216 -3,1c-1.21412,0.19582 -5.98021,-0.12694 -7.095,0.01355c-6.89703,0.86921 -13.32052,3.7628 -20.26217,0.82843c-4.80309,-2.03036 -12.09114,-6.36379 -14.32958,-11.29831c-0.56777,-1.25161 -0.46172,-2.73543 -1,-4c-0.98476,-2.31351 -2.38166,-4.43489 -3.74182,-6.54961c-2.17257,-3.37782 -6.76366,-3.8304 -9.55687,-6.52842c-2.0742,-1.3828 -3.67195,-3.39906 -5.72936,-4.80673c-1.67323,-1.14482 -3.96749,-0.98062 -5.78405,-1.88084c-2.74191,-1.35879 -2.48959,-2.35015 -5.30208,-2.77807c-4.601,-0.70005 -9.93391,0.03228 -14.59954,0.03228c-11.08546,0 -23.70363,-1.33043 -32.15394,7.18585c-1.55805,1.87165 -3.55902,3.44227 -4.69873,5.59439c-1.8581,3.50865 -1.65622,6.08773 -4.26769,9.36809c-0.78167,0.98188 -2.2196,1.23687 -3.11187,2.11944c-0.96559,0.95509 -1.19683,2.63674 -2.37667,3.30945c-1.75356,0.99984 -8.22989,1.53126 -10.39879,2.25312c-1.5518,0.51647 -2.84317,1.71614 -4.43153,2.10595c-1.4192,0.34829 -2.92712,-0.06178 -4.38356,0.05742c-3.89579,0.31884 -8.70354,1.88383 -12.64999,0.96118c-8.06205,-1.88485 -15.41575,-6.61381 -21.49658,-11.915c-3.6865,-3.21384 -6.93348,-5.15819 -8.89965,-9.53985h-39.82559l-1.84623,0.52381l-10.78565,-3.55056l-0.07645,-0.06736l-0.09709,-0.03089l-8.59375,-7.42187l-0.50071,-1.85262l-5.84286,-9.73811l-1.22497,-2.59693l-0.14269,-0.2249l-0.1383,-0.37079l-0.16883,-0.35792l-0.06134,-0.25919l-1.00341,-2.69031l-10,-38l-0.34846,-2.19192l-0.08405,-0.26417l-0.07131,-0.71315l-0.11252,-0.70782l0.01406,-0.27686l-0.22084,-2.20843v-32l0.19344,-1.93443l-0.01545,-0.2446l0.12603,-0.86118l0.0866,-0.86604l0.07431,-0.23355l0.2815,-1.92359l1.78676,-7.14706l2.84721,-16.13419l0.23853,-0.84756l0.12749,-0.8712l6,-24l0.47625,-1.32669l0.01909,-0.12171l0.42637,-1.11922l0.40466,-1.12726l0.06471,-0.10483l0.50181,-1.31724l1,-2l0.68451,-1.08381l0.71303,-1.71128l3.54172,-3.446l3.446,-3.54172l1.16747,-0.48644c0.05067,-0.37515 0.11585,-0.74719 0.2107,-1.11275c0.84448,-3.25454 1.91403,-6.53992 3.02735,-9.7987l-4.52897,-16.98365l-3.58794,-12.55779l-3.5251,-8.81276l-0.37313,-1.29351l-0.04731,-0.0924l-0.32425,-1.19569l-0.34337,-1.19034l-0.00751,-0.10354l-0.35236,-1.29932l-1,-6l-0.03347,-0.5104l-0.11363,-0.49871l-1,-8l-0.03837,-1.55405l-0.15468,-1.54681v-12l0.21254,-2.12542l-0.01466,-0.26936l0.11691,-0.75311l0.07584,-0.75835l0.08179,-0.25706l0.32766,-2.11074l7,-27l0.43074,-1.1679l0.01096,-0.06984l0.46487,-1.2203l0.33693,-0.91355l-0.37405,-1.84822l2.49559,-5.98941l0.95987,-3.01673l0.57406,-0.6647l0.14858,-0.35658c-0.55287,-2.06628 -0.84764,-4.23807 -0.84764,-6.47871z"/></g></g></svg>