<svg version="1.1" xmlns="http://www.w3.org/2000/svg" xmlns:xlink="http://www.w3.org/1999/xlink" width="208.15359" height="188.76459" viewBox="0,0,208.15359,188.76459"><g transform="translate(-129.07009,-84.83989)"><g data-paper-data="{&quot;isPaintingLayer&quot;:true}" fill="#00ff40" fill-rule="nonzero" stroke="none" stroke-width="0.5" stroke-linecap="butt" stroke-linejoin="miter" stroke-miterlimit="10" stroke-dasharray="" stroke-dashoffset="0" style="mix-blend-mode: normal"><path d="M269.10343,119.5748c0.05531,-0.03711 0.10779,-0.07099 0.15722,-0.10143c0.89751,-0.55279 2.09607,-0.45776 3,-1c0.8351,-0.50095 1.20419,-1.62845 2.08258,-2.04887c2.61958,-1.25381 8.97131,-2.22728 11.95621,-1.21723c2.27615,0.77022 3.73597,3.03469 5.73732,4.36462c3.71553,2.46904 7.30511,3.49894 8.93095,8.30365c0.14566,0.43044 0.10727,7.44949 0.10727,7.72446c0,2.58456 -0.27007,5.182 -0.01217,7.75366c0.42267,4.21463 1.67647,8.32373 0.97989,12.6468c-0.16769,1.04067 -0.82049,1.9613 -1,3c-0.31787,1.83928 0.22533,3.74301 0.03228,5.59954c-0.05547,0.53345 -0.80503,1.11791 -0.47189,1.53822c0.36539,0.46101 1.19043,-0.04712 1.76246,0.09007c2.92494,0.70148 4.37632,1.52841 6.7944,3.43835c3.56575,2.81644 6.58831,8.10187 11.13949,9.54063c0.95349,0.30142 2.05866,-0.33745 3,0c1.43628,0.51488 2.65764,1.5207 3.86051,2.45937c0.55857,0.43588 0.70772,1.37652 1.37174,1.62366c0.86503,0.32195 1.84517,-0.05535 2.76775,-0.08303c3.93917,2.65726 4.98609,2.14216 5.74326,6.99227c0.22417,1.43595 0.30915,2.98095 -0.15802,4.35716c-0.30306,0.89277 -1.63898,1.12905 -2,2c-0.31257,0.75407 0.2876,1.63781 0.15802,2.44375c-0.33466,2.08145 -1.65207,3.92072 -2,6c-0.48815,2.91725 0.96646,6.77091 -0.15802,9.55625c-0.48834,1.20962 -3.43689,3.44801 -4.37634,4.62826c-1.94659,2.44552 -3.7808,5.8924 -6.61903,7.54165c-2.02977,1.17947 -4.59823,0.95515 -6.91387,1.34109c-4.48747,0.74791 -7.25749,2.58154 -10.52708,-2.15339c-0.64495,-0.934 -0.74611,-2.14397 -1.11916,-3.21595c-0.39811,-0.68495 -0.51676,-1.64431 -1.19433,-2.05484c-0.94699,-0.57376 -2.1923,-0.34582 -3.25885,-0.64324c-1.23076,-0.3432 -2.51385,-0.62619 -3.61536,-1.27367c-0.70381,-0.41372 -0.89548,-1.48729 -1.64238,-1.81693c-1.53907,-0.67925 -3.36135,0.2245 -5.04329,0.1903c-1.59662,-0.03246 -2.88121,-0.61738 -4.01323,1.01748c-0.44685,0.64534 -0.38518,1.52256 -0.61506,2.27309c-0.57831,1.88815 -1.62946,3.65433 -1.90399,5.60989c-0.35217,2.50861 0.03228,5.06634 0.03228,7.59954c0,7.94615 1.319,17.22074 -1.12829,24.79057c-3.39281,9.60213 -15.04588,19.41675 -25.68604,13.33606c-1.94922,-1.11395 -3.54215,-2.76056 -5.27064,-4.19327c-0.54549,-0.45214 -0.70821,-1.37522 -1.37174,-1.62366c-0.98713,-0.36961 -2.29647,0.52892 -3.16133,-0.07363c-3.48657,-2.42914 -4.03756,-5.46299 -5.91007,-8.77429c-0.24279,-0.42935 -0.44922,-1.036 -0.9286,-1.15208c-0.98786,-0.23921 -2.02725,0.16285 -3.04329,0.1903c-4.11304,0.11113 -8.13133,-0.53815 -12.04329,0.8097c-8.9923,4.35715 -19.03327,4.1903 -28.95671,4.1903c-2.80101,0 -8.02907,0.77573 -10.72446,-0.10727c-2.53581,-0.83072 -8.49028,-4.83167 -9.58524,-7.43602c-1.12633,-2.67897 -0.2936,-8.87965 1.18307,-11.27104c2.09378,-3.39076 2.95612,-2.60501 6.16992,-3.99537c2.38409,-1.03141 4.70336,-2.23592 7.16614,-3.06201c3.72415,-1.23994 9.3727,-2.30355 11.66394,-5.94262c0.56163,-0.89201 0.45318,-2.09883 1,-3c1.28991,-2.12581 2.88603,-2.45278 1,-5.37134c-0.45247,-0.70019 -1.2957,-1.07069 -1.80673,-1.72936c-0.6037,-0.77811 -0.68357,-2.00082 -1.50677,-2.54143c-0.97456,-0.64001 -2.335,-0.29094 -3.42724,-0.69883c-2.6989,-1.00787 -4.92014,-3.18139 -7.70702,-3.91159c-1.01582,-0.26616 -2.15339,0.29028 -3.15008,-0.04039c-1.14071,-0.37845 -1.8452,-1.66702 -3,-2c-1.17761,-0.33956 -2.46301,0.25026 -3.676,0.07499c-2.08652,-0.30149 -3.91993,-1.65683 -6,-2c-1.0935,-0.18041 -2.27209,0.27397 -3.324,-0.07499c-2.09559,-0.69518 -3.81816,-2.29184 -5.91721,-2.97648c-2.49136,-0.49812 -6.04419,-0.99592 -8.45248,-2.1684c-1.05357,-0.51293 -1.84092,-1.49827 -2.91724,-1.96157c-1.33617,-0.57515 -2.93014,-0.43888 -4.22036,-1.11079c-1.03385,-0.5384 -1.70115,-1.59427 -2.53602,-2.40773c-3.04228,-2.96428 -6.38716,-6.84684 -8.42483,-10.56671c-1.37926,-2.51792 -1.71505,-5.51048 -3.03248,-8.0613c-0.55854,-1.08144 -1.48418,-1.94886 -2.02071,-3.04138c-1.99294,-4.05815 -2.2349,-8.68263 -2.2542,-13.09245c-0.00433,-0.98954 -0.04245,-6.40244 0.19029,-6.96263c0.83453,-2.00865 5.34473,-4.85525 6.67169,-5.93193c0.93511,-0.75873 1.56688,-1.96481 2.6813,-2.42106c1.12758,-0.46165 2.44686,0.01285 3.65125,-0.17157c1.35853,-0.20802 2.66667,-0.66667 4,-1c3.84153,-0.02177 9.29048,-0.91463 12.68833,1.39856c2.28676,1.55678 3.44845,4.33934 5.3849,6.31494c0.79414,0.81019 1.77517,1.48062 2.35886,2.45344c0.45036,0.7506 0.02218,1.9276 0.64114,2.54656c0.61896,0.61896 1.79212,0.19723 2.54656,0.64114c0.90696,0.53365 1.48488,1.49331 2.27064,2.19327c0.71381,0.63587 2.45031,2.68016 3.77102,1.04995c1.57141,-1.93967 0.97901,-5.95023 1.12002,-7.93901c0.55659,-7.84994 2.02418,-16.03139 1.03616,-23.93124c-0.2666,-2.13163 -1.47493,-6.82151 -1.99361,-8.94227c-0.01739,-3.09505 -0.10321,-6.20975 -0.01856,-9.30407c0.03611,-1.31993 -0.28923,-2.72643 0.1903,-3.95671c0.42893,-1.10045 1.65135,-1.69587 2.37634,-2.62826c4.54236,-5.84177 10.06224,-11.27019 16.83498,-14.66082c4.7574,-2.38169 10.35595,-2.71646 15.40075,-4.1549c3.93379,-1.12165 8.19153,-3.20448 12.42209,-1.99204c3.29696,0.94488 6.13288,4.71813 8.40217,7.0784c1.31603,3.84074 2.45591,9.76713 1.3065,13.88871c-1.06826,3.83056 -4.00522,8.88317 -6.49977,12.01059c-0.51984,0.65173 -1.37919,1.01367 -1.80673,1.72936c-0.58121,0.97293 -0.42856,2.32087 -1.13986,3.20316c-0.6781,0.84111 -2.09885,0.82562 -2.78258,1.66216c-0.30464,0.37273 0.15255,0.95149 0.26353,1.4199c0.35832,1.51227 1.89614,2.50574 3.11725,3.4671c0.63086,0.49666 0.92729,1.40148 1.64677,1.75786c3.5236,1.7453 8.21472,2.20257 11.90089,0.83079c4.11727,-1.53222 5.92409,-4.87516 10.03187,-6.35262c0.94213,-3.47812 3.42593,-6.52584 7.11104,-7.6954c3.29056,-1.04434 6.4498,0.9334 9.72446,0.89273h3c0,0 0.82602,0 1.52845,0.47481z"/></g></g></svg>